<svg xmlns="http://www.w3.org/2000/svg" width="560" height="330" viewBox="0 0 560 330" font-family="Helvetica,Arial,sans-serif">
<rect width="560" height="330" fill="#ffffff"/>
<text x="62" y="19" font-size="14" fill="#222">Acoustics: impedance-matched pulse, c=1</text>
<line x1="62.0" y1="30" x2="62.0" y2="288" stroke="#e5e5e5"/>
<text x="62.0" y="302" font-size="10" fill="#555" text-anchor="middle">0</text>
<line x1="159.2" y1="30" x2="159.2" y2="288" stroke="#e5e5e5"/>
<text x="159.2" y="302" font-size="10" fill="#555" text-anchor="middle">0.2</text>
<line x1="256.4" y1="30" x2="256.4" y2="288" stroke="#e5e5e5"/>
<text x="256.4" y="302" font-size="10" fill="#555" text-anchor="middle">0.4</text>
<line x1="353.5" y1="30" x2="353.5" y2="288" stroke="#e5e5e5"/>
<text x="353.5" y="302" font-size="10" fill="#555" text-anchor="middle">0.6</text>
<line x1="450.7" y1="30" x2="450.7" y2="288" stroke="#e5e5e5"/>
<text x="450.7" y="302" font-size="10" fill="#555" text-anchor="middle">0.8</text>
<line x1="62" y1="272.5" x2="546" y2="272.5" stroke="#e5e5e5"/>
<text x="56" y="276.0" font-size="10" fill="#555" text-anchor="end">0</text>
<line x1="62" y1="226.7" x2="546" y2="226.7" stroke="#e5e5e5"/>
<text x="56" y="230.2" font-size="10" fill="#555" text-anchor="end">0.2</text>
<line x1="62" y1="180.9" x2="546" y2="180.9" stroke="#e5e5e5"/>
<text x="56" y="184.4" font-size="10" fill="#555" text-anchor="end">0.4</text>
<line x1="62" y1="135.1" x2="546" y2="135.1" stroke="#e5e5e5"/>
<text x="56" y="138.6" font-size="10" fill="#555" text-anchor="end">0.6</text>
<line x1="62" y1="89.3" x2="546" y2="89.3" stroke="#e5e5e5"/>
<text x="56" y="92.8" font-size="10" fill="#555" text-anchor="end">0.8</text>
<line x1="62" y1="43.5" x2="546" y2="43.5" stroke="#e5e5e5"/>
<text x="56" y="47.0" font-size="10" fill="#555" text-anchor="end">1</text>
<rect x="62" y="30" width="484" height="258" fill="none" stroke="#888"/>
<text x="304" y="322" font-size="11" fill="#333" text-anchor="middle">x</text>
<text x="14" y="159" font-size="11" fill="#333" text-anchor="middle" transform="rotate(-90 14 159)">p</text>
<polyline points="62.00,272.51 63.90,272.51 65.80,272.51 67.69,272.51 69.59,272.51 71.49,272.51 73.39,272.51 75.29,272.51 77.18,272.51 79.08,272.51 80.98,272.51 82.88,272.51 84.78,272.51 86.67,272.51 88.57,272.51 90.47,272.51 92.37,272.51 94.27,272.51 96.16,272.51 98.06,272.51 99.96,272.51 101.86,272.51 103.76,272.51 105.65,272.51 107.55,272.51 109.45,272.51 111.35,272.51 113.25,272.51 115.15,272.51 117.04,272.51 118.94,272.51 120.84,272.51 122.74,272.51 124.64,272.51 126.53,272.51 128.43,272.51 130.33,272.51 132.23,272.51 134.13,272.51 136.02,272.51 137.92,272.51 139.82,272.51 141.72,272.51 143.62,272.51 145.51,272.51 147.41,272.51 149.31,272.51 151.21,272.51 153.11,272.51 155.00,272.51 156.90,272.51 158.80,272.51 160.70,272.51 162.60,272.51 164.49,272.51 166.39,272.51 168.29,272.51 170.19,272.51 172.09,272.51 173.98,272.51 175.88,272.50 177.78,272.49 179.68,272.45 181.58,272.35 183.47,272.07 185.37,271.38 187.27,269.83 189.17,266.64 191.07,260.57 192.96,250.02 194.86,233.26 196.76,209.04 198.66,177.40 200.56,140.48 202.45,102.68 204.35,70.10 206.25,49.00 208.15,43.82 210.05,55.71 211.95,82.09 213.84,117.53 215.74,155.65 217.64,190.86 219.54,219.66 221.44,240.81 223.33,254.89 225.23,263.44 227.13,268.18 229.03,270.60 230.93,271.72 232.82,272.21 234.72,272.40 236.62,272.47 238.52,272.50 240.42,272.51 242.31,272.51 244.21,272.51 246.11,272.51 248.01,272.51 249.91,272.51 251.80,272.51 253.70,272.51 255.60,272.51 257.50,272.51 259.40,272.51 261.29,272.51 263.19,272.51 265.09,272.51 266.99,272.51 268.89,272.51 270.78,272.51 272.68,272.51 274.58,272.51 276.48,272.51 278.38,272.51 280.27,272.51 282.17,272.51 284.07,272.51 285.97,272.51 287.87,272.51 289.76,272.51 291.66,272.51 293.56,272.51 295.46,272.51 297.36,272.51 299.25,272.51 301.15,272.51 303.05,272.51 304.95,272.51 306.85,272.51 308.75,272.51 310.64,272.51 312.54,272.51 314.44,272.51 316.34,272.51 318.24,272.51 320.13,272.51 322.03,272.51 323.93,272.51 325.83,272.51 327.73,272.51 329.62,272.51 331.52,272.51 333.42,272.51 335.32,272.51 337.22,272.51 339.11,272.51 341.01,272.51 342.91,272.51 344.81,272.51 346.71,272.51 348.60,272.51 350.50,272.51 352.40,272.51 354.30,272.51 356.20,272.51 358.09,272.51 359.99,272.51 361.89,272.51 363.79,272.51 365.69,272.51 367.58,272.51 369.48,272.51 371.38,272.51 373.28,272.51 375.18,272.51 377.07,272.51 378.97,272.51 380.87,272.51 382.77,272.51 384.67,272.51 386.56,272.51 388.46,272.51 390.36,272.51 392.26,272.51 394.16,272.51 396.05,272.51 397.95,272.51 399.85,272.51 401.75,272.51 403.65,272.51 405.55,272.51 407.44,272.51 409.34,272.51 411.24,272.51 413.14,272.51 415.04,272.51 416.93,272.51 418.83,272.51 420.73,272.51 422.63,272.51 424.53,272.51 426.42,272.51 428.32,272.51 430.22,272.51 432.12,272.51 434.02,272.51 435.91,272.51 437.81,272.51 439.71,272.51 441.61,272.51 443.51,272.51 445.40,272.51 447.30,272.51 449.20,272.51 451.10,272.51 453.00,272.51 454.89,272.51 456.79,272.51 458.69,272.51 460.59,272.51 462.49,272.51 464.38,272.51 466.28,272.51 468.18,272.51 470.08,272.51 471.98,272.51 473.87,272.51 475.77,272.51 477.67,272.51 479.57,272.51 481.47,272.51 483.36,272.51 485.26,272.51 487.16,272.51 489.06,272.51 490.96,272.51 492.85,272.51 494.75,272.51 496.65,272.51 498.55,272.51 500.45,272.51 502.35,272.51 504.24,272.51 506.14,272.51 508.04,272.51 509.94,272.51 511.84,272.51 513.73,272.51 515.63,272.51 517.53,272.51 519.43,272.51 521.33,272.51 523.22,272.51 525.12,272.51 527.02,272.51 528.92,272.51 530.82,272.51 532.71,272.51 534.61,272.51 536.51,272.51 538.41,272.51 540.31,272.51 542.20,272.51 544.10,272.51 546.00,272.51" fill="none" stroke="#999999" stroke-width="1.8" stroke-dasharray="6 4"/>
<polyline points="62.00,272.19 63.90,272.70 65.80,273.21 67.69,273.62 69.59,273.84 71.49,273.83 73.39,273.63 75.29,273.31 77.18,272.98 79.08,272.72 80.98,272.56 82.88,272.49 84.78,272.48 86.67,272.50 88.57,272.51 90.47,272.51 92.37,272.51 94.27,272.51 96.16,272.51 98.06,272.51 99.96,272.51 101.86,272.51 103.76,272.51 105.65,272.51 107.55,272.51 109.45,272.51 111.35,272.51 113.25,272.51 115.15,272.51 117.04,272.51 118.94,272.51 120.84,272.51 122.74,272.51 124.64,272.51 126.53,272.51 128.43,272.51 130.33,272.51 132.23,272.51 134.13,272.51 136.02,272.51 137.92,272.51 139.82,272.51 141.72,272.51 143.62,272.51 145.51,272.51 147.41,272.51 149.31,272.51 151.21,272.51 153.11,272.51 155.00,272.51 156.90,272.51 158.80,272.51 160.70,272.51 162.60,272.51 164.49,272.51 166.39,272.51 168.29,272.51 170.19,272.51 172.09,272.51 173.98,272.51 175.88,272.51 177.78,272.51 179.68,272.51 181.58,272.51 183.47,272.51 185.37,272.51 187.27,272.51 189.17,272.51 191.07,272.51 192.96,272.51 194.86,272.51 196.76,272.51 198.66,272.51 200.56,272.51 202.45,272.51 204.35,272.51 206.25,272.51 208.15,272.51 210.05,272.51 211.95,272.51 213.84,272.51 215.74,272.51 217.64,272.51 219.54,272.51 221.44,272.51 223.33,272.51 225.23,272.51 227.13,272.51 229.03,272.51 230.93,272.51 232.82,272.51 234.72,272.51 236.62,272.51 238.52,272.51 240.42,272.51 242.31,272.51 244.21,272.51 246.11,272.51 248.01,272.51 249.91,272.51 251.80,272.51 253.70,272.51 255.60,272.51 257.50,272.51 259.40,272.51 261.29,272.51 263.19,272.51 265.09,272.51 266.99,272.51 268.89,272.51 270.78,272.51 272.68,272.51 274.58,272.51 276.48,272.51 278.38,272.51 280.27,272.51 282.17,272.51 284.07,272.51 285.97,272.51 287.87,272.51 289.76,272.51 291.66,272.51 293.56,272.51 295.46,272.51 297.36,272.51 299.25,272.51 301.15,272.51 303.05,272.51 304.95,272.51 306.85,272.51 308.75,272.51 310.64,272.51 312.54,272.51 314.44,272.51 316.34,272.51 318.24,272.51 320.13,272.52 322.03,272.52 323.93,272.47 325.83,272.39 327.73,272.42 329.62,272.78 331.52,273.56 333.42,274.18 335.32,272.95 337.22,267.05 339.11,253.24 341.01,229.23 342.91,195.14 344.81,154.23 346.71,112.44 348.60,76.83 350.50,53.52 352.40,46.02 354.30,54.45 356.20,75.99 358.09,105.97 359.99,139.29 361.89,171.61 363.79,199.94 365.69,222.84 367.58,240.09 369.48,252.28 371.38,260.43 373.28,265.60 375.18,268.71 377.07,270.50 378.97,271.49 380.87,272.01 382.77,272.27 384.67,272.40 386.56,272.46 388.46,272.49 390.36,272.50 392.26,272.51 394.16,272.51 396.05,272.51 397.95,272.51 399.85,272.51 401.75,272.51 403.65,272.51 405.55,272.51 407.44,272.51 409.34,272.51 411.24,272.51 413.14,272.51 415.04,272.51 416.93,272.51 418.83,272.51 420.73,272.51 422.63,272.51 424.53,272.51 426.42,272.51 428.32,272.51 430.22,272.51 432.12,272.51 434.02,272.51 435.91,272.51 437.81,272.51 439.71,272.51 441.61,272.51 443.51,272.51 445.40,272.51 447.30,272.51 449.20,272.51 451.10,272.51 453.00,272.51 454.89,272.51 456.79,272.51 458.69,272.51 460.59,272.51 462.49,272.51 464.38,272.51 466.28,272.51 468.18,272.51 470.08,272.51 471.98,272.51 473.87,272.51 475.77,272.51 477.67,272.51 479.57,272.51 481.47,272.51 483.36,272.51 485.26,272.51 487.16,272.51 489.06,272.51 490.96,272.51 492.85,272.51 494.75,272.51 496.65,272.51 498.55,272.51 500.45,272.51 502.35,272.51 504.24,272.51 506.14,272.51 508.04,272.51 509.94,272.51 511.84,272.51 513.73,272.51 515.63,272.51 517.53,272.50 519.43,272.50 521.33,272.49 523.22,272.48 525.12,272.45 527.02,272.41 528.92,272.35 530.82,272.26 532.71,272.13 534.61,271.97 536.51,271.79 538.41,271.62 540.31,271.48 542.20,271.44 544.10,271.53 546.00,271.78" fill="none" stroke="#1f77b4" stroke-width="1.8"/>
<line x1="72" y1="39" x2="94" y2="39" stroke="#999999" stroke-width="2" stroke-dasharray="6 4"/>
<text x="99" y="42" font-size="11" fill="#333">p (t=0)</text>
<line x1="72" y1="54" x2="94" y2="54" stroke="#1f77b4" stroke-width="2"/>
<text x="99" y="57" font-size="11" fill="#333">p (t=0.3)</text>
</svg>
