<svg xmlns="http://www.w3.org/2000/svg" width="560" height="330" viewBox="0 0 560 330" font-family="Helvetica,Arial,sans-serif">
<rect width="560" height="330" fill="#ffffff"/>
<text x="62" y="19" font-size="14" fill="#222">Burgers vs Cole-Hopf exact (max err 3.5e-5)</text>
<line x1="62.0" y1="30" x2="62.0" y2="288" stroke="#e5e5e5"/>
<text x="62.0" y="302" font-size="10" fill="#555" text-anchor="middle">0</text>
<line x1="159.6" y1="30" x2="159.6" y2="288" stroke="#e5e5e5"/>
<text x="159.6" y="302" font-size="10" fill="#555" text-anchor="middle">0.2</text>
<line x1="257.1" y1="30" x2="257.1" y2="288" stroke="#e5e5e5"/>
<text x="257.1" y="302" font-size="10" fill="#555" text-anchor="middle">0.4</text>
<line x1="354.7" y1="30" x2="354.7" y2="288" stroke="#e5e5e5"/>
<text x="354.7" y="302" font-size="10" fill="#555" text-anchor="middle">0.6</text>
<line x1="452.2" y1="30" x2="452.2" y2="288" stroke="#e5e5e5"/>
<text x="452.2" y="302" font-size="10" fill="#555" text-anchor="middle">0.8</text>
<line x1="62" y1="286.0" x2="546" y2="286.0" stroke="#e5e5e5"/>
<text x="56" y="289.5" font-size="10" fill="#555" text-anchor="end">-0.4</text>
<line x1="62" y1="222.5" x2="546" y2="222.5" stroke="#e5e5e5"/>
<text x="56" y="226.0" font-size="10" fill="#555" text-anchor="end">-0.2</text>
<line x1="62" y1="159.0" x2="546" y2="159.0" stroke="#e5e5e5"/>
<text x="56" y="162.5" font-size="10" fill="#555" text-anchor="end">0</text>
<line x1="62" y1="95.5" x2="546" y2="95.5" stroke="#e5e5e5"/>
<text x="56" y="99.0" font-size="10" fill="#555" text-anchor="end">0.2</text>
<line x1="62" y1="32.0" x2="546" y2="32.0" stroke="#e5e5e5"/>
<text x="56" y="35.5" font-size="10" fill="#555" text-anchor="end">0.4</text>
<rect x="62" y="30" width="484" height="258" fill="none" stroke="#888"/>
<text x="304" y="322" font-size="11" fill="#333" text-anchor="middle">x</text>
<text x="14" y="159" font-size="11" fill="#333" text-anchor="middle" transform="rotate(-90 14 159)">u</text>
<polyline points="62.00,159.00 65.81,155.74 69.62,152.47 73.43,149.21 77.24,145.94 81.06,142.68 84.87,139.41 88.68,136.15 92.49,132.88 96.30,129.62 100.11,126.36 103.92,123.10 107.73,119.85 111.54,116.60 115.35,113.35 119.17,110.11 122.98,106.88 126.79,103.66 130.60,100.45 134.41,97.26 138.22,94.08 142.03,90.93 145.84,87.80 149.65,84.70 153.46,81.63 157.28,78.61 161.09,75.63 164.90,72.71 168.71,69.85 172.52,67.06 176.33,64.35 180.14,61.74 183.95,59.23 187.76,56.85 191.57,54.60 195.39,52.50 199.20,50.58 203.01,48.84 206.82,47.32 210.63,46.04 214.44,45.02 218.25,44.29 222.06,43.88 225.87,43.82 229.69,44.14 233.50,44.88 237.31,46.05 241.12,47.71 244.93,49.87 248.74,52.57 252.55,55.84 256.36,59.68 260.17,64.13 263.98,69.20 267.80,74.88 271.61,81.16 275.42,88.04 279.23,95.49 283.04,103.47 286.85,111.93 290.66,120.81 294.47,130.04 298.28,139.54 302.09,149.22 305.91,159.00 309.72,168.78 313.53,178.46 317.34,187.96 321.15,197.19 324.96,206.07 328.77,214.53 332.58,222.51 336.39,229.96 340.20,236.84 344.02,243.12 347.83,248.80 351.64,253.87 355.45,258.32 359.26,262.16 363.07,265.43 366.88,268.13 370.69,270.29 374.50,271.95 378.31,273.12 382.13,273.86 385.94,274.18 389.75,274.12 393.56,273.71 397.37,272.98 401.18,271.96 404.99,270.68 408.80,269.16 412.61,267.42 416.43,265.50 420.24,263.40 424.05,261.15 427.86,258.77 431.67,256.26 435.48,253.65 439.29,250.94 443.10,248.15 446.91,245.29 450.72,242.37 454.54,239.39 458.35,236.37 462.16,233.30 465.97,230.20 469.78,227.07 473.59,223.92 477.40,220.74 481.21,217.55 485.02,214.34 488.83,211.12 492.65,207.89 496.46,204.65 500.27,201.40 504.08,198.15 507.89,194.90 511.70,191.64 515.51,188.38 519.32,185.12 523.13,181.85 526.94,178.59 530.76,175.32 534.57,172.06 538.38,168.79 542.19,165.53 546.00,162.26" fill="none" stroke="#999999" stroke-width="1.8" stroke-dasharray="6 4"/>
<polyline points="62.00,159.00 65.81,157.46 69.62,155.93 73.43,154.39 77.24,152.87 81.06,151.35 84.87,149.84 88.68,148.34 92.49,146.86 96.30,145.39 100.11,143.95 103.92,142.52 107.73,141.11 111.54,139.73 115.35,138.38 119.17,137.06 122.98,135.77 126.79,134.51 130.60,133.29 134.41,132.12 138.22,130.98 142.03,129.89 145.84,128.85 149.65,127.86 153.46,126.93 157.28,126.05 161.09,125.24 164.90,124.49 168.71,123.80 172.52,123.19 176.33,122.65 180.14,122.19 183.95,121.81 187.76,121.51 191.57,121.30 195.39,121.18 199.20,121.15 203.01,121.21 206.82,121.37 210.63,121.64 214.44,122.00 218.25,122.47 222.06,123.04 225.87,123.72 229.69,124.50 233.50,125.39 237.31,126.39 241.12,127.50 244.93,128.71 248.74,130.02 252.55,131.43 256.36,132.94 260.17,134.54 263.98,136.24 267.80,138.02 271.61,139.87 275.42,141.80 279.23,143.80 283.04,145.86 286.85,147.97 290.66,150.12 294.47,152.31 298.28,154.52 302.09,156.76 305.91,159.00 309.72,161.24 313.53,163.48 317.34,165.69 321.15,167.88 324.96,170.03 328.77,172.14 332.58,174.20 336.39,176.20 340.20,178.13 344.02,179.98 347.83,181.76 351.64,183.46 355.45,185.06 359.26,186.57 363.07,187.98 366.88,189.29 370.69,190.50 374.50,191.61 378.31,192.61 382.13,193.50 385.94,194.28 389.75,194.96 393.56,195.53 397.37,196.00 401.18,196.36 404.99,196.63 408.80,196.79 412.61,196.85 416.43,196.82 420.24,196.70 424.05,196.49 427.86,196.19 431.67,195.81 435.48,195.35 439.29,194.81 443.10,194.20 446.91,193.51 450.72,192.76 454.54,191.95 458.35,191.07 462.16,190.14 465.97,189.15 469.78,188.11 473.59,187.02 477.40,185.88 481.21,184.71 485.02,183.49 488.83,182.23 492.65,180.94 496.46,179.62 500.27,178.27 504.08,176.89 507.89,175.48 511.70,174.05 515.51,172.61 519.32,171.14 523.13,169.66 526.94,168.16 530.76,166.65 534.57,165.13 538.38,163.61 542.19,162.07 546.00,160.54" fill="none" stroke="#1f77b4" stroke-width="1.8"/>
<polyline points="62.00,159.00 65.81,157.46 69.62,155.93 73.43,154.39 77.24,152.87 81.06,151.35 84.87,149.84 88.68,148.34 92.49,146.86 96.30,145.39 100.11,143.95 103.92,142.52 107.73,141.11 111.54,139.73 115.35,138.38 119.17,137.06 122.98,135.77 126.79,134.51 130.60,133.30 134.41,132.12 138.22,130.98 142.03,129.90 145.84,128.86 149.65,127.87 153.46,126.93 157.28,126.06 161.09,125.24 164.90,124.49 168.71,123.81 172.52,123.20 176.33,122.66 180.14,122.20 183.95,121.82 187.76,121.52 191.57,121.31 195.39,121.19 199.20,121.16 203.01,121.22 206.82,121.38 210.63,121.65 214.44,122.01 218.25,122.48 222.06,123.05 225.87,123.73 229.69,124.51 233.50,125.40 237.31,126.40 241.12,127.51 244.93,128.72 248.74,130.03 252.55,131.44 256.36,132.95 260.17,134.55 263.98,136.25 267.80,138.02 271.61,139.88 275.42,141.81 279.23,143.81 283.04,145.86 286.85,147.97 290.66,150.12 294.47,152.31 298.28,154.53 302.09,156.76 305.91,159.00 309.72,161.24 313.53,163.47 317.34,165.69 321.15,167.88 324.96,170.03 328.77,172.14 332.58,174.19 336.39,176.19 340.20,178.12 344.02,179.98 347.83,181.75 351.64,183.45 355.45,185.05 359.26,186.56 363.07,187.97 366.88,189.28 370.69,190.49 374.50,191.60 378.31,192.60 382.13,193.49 385.94,194.27 389.75,194.95 393.56,195.52 397.37,195.99 401.18,196.35 404.99,196.62 408.80,196.78 412.61,196.84 416.43,196.81 420.24,196.69 424.05,196.48 427.86,196.18 431.67,195.80 435.48,195.34 439.29,194.80 443.10,194.19 446.91,193.51 450.72,192.76 454.54,191.94 458.35,191.07 462.16,190.13 465.97,189.14 469.78,188.10 473.59,187.02 477.40,185.88 481.21,184.70 485.02,183.49 488.83,182.23 492.65,180.94 496.46,179.62 500.27,178.27 504.08,176.89 507.89,175.48 511.70,174.05 515.51,172.61 519.32,171.14 523.13,169.66 526.94,168.16 530.76,166.65 534.57,165.13 538.38,163.61 542.19,162.07 546.00,160.54" fill="none" stroke="#d62728" stroke-width="1.8" stroke-dasharray="6 4"/>
<line x1="72" y1="39" x2="94" y2="39" stroke="#999999" stroke-width="2" stroke-dasharray="6 4"/>
<text x="99" y="42" font-size="11" fill="#333">u (t=0)</text>
<line x1="72" y1="54" x2="94" y2="54" stroke="#1f77b4" stroke-width="2"/>
<text x="99" y="57" font-size="11" fill="#333">u (t=0.5)</text>
<line x1="72" y1="69" x2="94" y2="69" stroke="#d62728" stroke-width="2" stroke-dasharray="6 4"/>
<text x="99" y="72" font-size="11" fill="#333">Cole-Hopf exact</text>
</svg>
