<svg xmlns="http://www.w3.org/2000/svg" width="560" height="330" viewBox="0 0 560 330" font-family="Helvetica,Arial,sans-serif">
<rect width="560" height="330" fill="#ffffff"/>
<text x="62" y="19" font-size="14" fill="#222">1D diffusion: Gaussian peak decays</text>
<line x1="62.0" y1="30" x2="62.0" y2="288" stroke="#e5e5e5"/>
<text x="62.0" y="302" font-size="10" fill="#555" text-anchor="middle">0</text>
<line x1="159.8" y1="30" x2="159.8" y2="288" stroke="#e5e5e5"/>
<text x="159.8" y="302" font-size="10" fill="#555" text-anchor="middle">0.2</text>
<line x1="257.6" y1="30" x2="257.6" y2="288" stroke="#e5e5e5"/>
<text x="257.6" y="302" font-size="10" fill="#555" text-anchor="middle">0.4</text>
<line x1="355.3" y1="30" x2="355.3" y2="288" stroke="#e5e5e5"/>
<text x="355.3" y="302" font-size="10" fill="#555" text-anchor="middle">0.6</text>
<line x1="453.1" y1="30" x2="453.1" y2="288" stroke="#e5e5e5"/>
<text x="453.1" y="302" font-size="10" fill="#555" text-anchor="middle">0.8</text>
<line x1="62" y1="274.2" x2="546" y2="274.2" stroke="#e5e5e5"/>
<text x="56" y="277.7" font-size="10" fill="#555" text-anchor="end">0</text>
<line x1="62" y1="228.1" x2="546" y2="228.1" stroke="#e5e5e5"/>
<text x="56" y="231.6" font-size="10" fill="#555" text-anchor="end">0.2</text>
<line x1="62" y1="182.0" x2="546" y2="182.0" stroke="#e5e5e5"/>
<text x="56" y="185.5" font-size="10" fill="#555" text-anchor="end">0.4</text>
<line x1="62" y1="136.0" x2="546" y2="136.0" stroke="#e5e5e5"/>
<text x="56" y="139.5" font-size="10" fill="#555" text-anchor="end">0.6</text>
<line x1="62" y1="89.9" x2="546" y2="89.9" stroke="#e5e5e5"/>
<text x="56" y="93.4" font-size="10" fill="#555" text-anchor="end">0.8</text>
<line x1="62" y1="43.8" x2="546" y2="43.8" stroke="#e5e5e5"/>
<text x="56" y="47.3" font-size="10" fill="#555" text-anchor="end">1</text>
<rect x="62" y="30" width="484" height="258" fill="none" stroke="#888"/>
<text x="304" y="322" font-size="11" fill="#333" text-anchor="middle">x</text>
<text x="14" y="159" font-size="11" fill="#333" text-anchor="middle" transform="rotate(-90 14 159)">u</text>
<polyline points="62.00,274.18 66.89,274.18 71.78,274.18 76.67,274.18 81.56,274.18 86.44,274.18 91.33,274.18 96.22,274.18 101.11,274.18 106.00,274.18 110.89,274.18 115.78,274.18 120.67,274.18 125.56,274.18 130.44,274.18 135.33,274.18 140.22,274.18 145.11,274.18 150.00,274.18 154.89,274.18 159.78,274.18 164.67,274.18 169.56,274.18 174.44,274.18 179.33,274.18 184.22,274.18 189.11,274.18 194.00,274.18 198.89,274.18 203.78,274.18 208.67,274.18 213.56,274.18 218.44,274.18 223.33,274.18 228.22,274.17 233.11,274.15 238.00,274.09 242.89,273.91 247.78,273.45 252.67,272.36 257.56,269.96 262.44,265.16 267.33,256.37 272.22,241.73 277.11,219.60 282.00,189.43 286.89,152.71 291.78,113.46 296.67,77.88 301.56,52.85 306.44,43.82 311.33,52.85 316.22,77.88 321.11,113.46 326.00,152.71 330.89,189.43 335.78,219.60 340.67,241.73 345.56,256.37 350.44,265.16 355.33,269.96 360.22,272.36 365.11,273.45 370.00,273.91 374.89,274.09 379.78,274.15 384.67,274.17 389.56,274.18 394.44,274.18 399.33,274.18 404.22,274.18 409.11,274.18 414.00,274.18 418.89,274.18 423.78,274.18 428.67,274.18 433.56,274.18 438.44,274.18 443.33,274.18 448.22,274.18 453.11,274.18 458.00,274.18 462.89,274.18 467.78,274.18 472.67,274.18 477.56,274.18 482.44,274.18 487.33,274.18 492.22,274.18 497.11,274.18 502.00,274.18 506.89,274.18 511.78,274.18 516.67,274.18 521.56,274.18 526.44,274.18 531.33,274.18 536.22,274.18 541.11,274.18 546.00,274.18" fill="none" stroke="#999999" stroke-width="1.8" stroke-dasharray="6 4"/>
<polyline points="62.00,274.18 66.89,274.18 71.78,274.18 76.67,274.18 81.56,274.18 86.44,274.18 91.33,274.18 96.22,274.18 101.11,274.18 106.00,274.18 110.89,274.18 115.78,274.18 120.67,274.18 125.56,274.18 130.44,274.18 135.33,274.18 140.22,274.18 145.11,274.18 150.00,274.18 154.89,274.18 159.78,274.18 164.67,274.18 169.56,274.18 174.44,274.18 179.33,274.17 184.22,274.17 189.11,274.16 194.00,274.13 198.89,274.09 203.78,274.01 208.67,273.87 213.56,273.61 218.44,273.19 223.33,272.49 228.22,271.38 233.11,269.68 238.00,267.17 242.89,263.57 247.78,258.61 252.67,252.01 257.56,243.56 262.44,233.17 267.33,220.89 272.22,207.04 277.11,192.14 282.00,176.96 286.89,162.48 291.78,149.73 296.67,139.75 301.56,133.37 306.44,131.18 311.33,133.37 316.22,139.75 321.11,149.73 326.00,162.48 330.89,176.96 335.78,192.14 340.67,207.04 345.56,220.89 350.44,233.17 355.33,243.56 360.22,252.01 365.11,258.61 370.00,263.57 374.89,267.17 379.78,269.68 384.67,271.38 389.56,272.49 394.44,273.19 399.33,273.61 404.22,273.87 409.11,274.01 414.00,274.09 418.89,274.13 423.78,274.16 428.67,274.17 433.56,274.17 438.44,274.18 443.33,274.18 448.22,274.18 453.11,274.18 458.00,274.18 462.89,274.18 467.78,274.18 472.67,274.18 477.56,274.18 482.44,274.18 487.33,274.18 492.22,274.18 497.11,274.18 502.00,274.18 506.89,274.18 511.78,274.18 516.67,274.18 521.56,274.18 526.44,274.18 531.33,274.18 536.22,274.18 541.11,274.18 546.00,274.18" fill="none" stroke="#1f77b4" stroke-width="1.8"/>
<line x1="72" y1="39" x2="94" y2="39" stroke="#999999" stroke-width="2" stroke-dasharray="6 4"/>
<text x="99" y="42" font-size="11" fill="#333">u (t=0)</text>
<line x1="72" y1="54" x2="94" y2="54" stroke="#1f77b4" stroke-width="2"/>
<text x="99" y="57" font-size="11" fill="#333">u (t=100)</text>
</svg>
