<svg xmlns="http://www.w3.org/2000/svg" width="560" height="330" viewBox="0 0 560 330" font-family="Helvetica,Arial,sans-serif">
<rect width="560" height="330" fill="#ffffff"/>
<text x="62" y="19" font-size="14" fill="#222">Dirichlet walls: eigenmode decays as (1+lam dt)^n</text>
<line x1="62.0" y1="30" x2="62.0" y2="288" stroke="#e5e5e5"/>
<text x="62.0" y="302" font-size="10" fill="#555" text-anchor="middle">0</text>
<line x1="160.3" y1="30" x2="160.3" y2="288" stroke="#e5e5e5"/>
<text x="160.3" y="302" font-size="10" fill="#555" text-anchor="middle">0.2</text>
<line x1="258.7" y1="30" x2="258.7" y2="288" stroke="#e5e5e5"/>
<text x="258.7" y="302" font-size="10" fill="#555" text-anchor="middle">0.4</text>
<line x1="357.0" y1="30" x2="357.0" y2="288" stroke="#e5e5e5"/>
<text x="357.0" y="302" font-size="10" fill="#555" text-anchor="middle">0.6</text>
<line x1="455.3" y1="30" x2="455.3" y2="288" stroke="#e5e5e5"/>
<text x="455.3" y="302" font-size="10" fill="#555" text-anchor="middle">0.8</text>
<line x1="62" y1="275.8" x2="546" y2="275.8" stroke="#e5e5e5"/>
<text x="56" y="279.3" font-size="10" fill="#555" text-anchor="end">0</text>
<line x1="62" y1="229.4" x2="546" y2="229.4" stroke="#e5e5e5"/>
<text x="56" y="232.9" font-size="10" fill="#555" text-anchor="end">0.2</text>
<line x1="62" y1="183.0" x2="546" y2="183.0" stroke="#e5e5e5"/>
<text x="56" y="186.5" font-size="10" fill="#555" text-anchor="end">0.4</text>
<line x1="62" y1="136.6" x2="546" y2="136.6" stroke="#e5e5e5"/>
<text x="56" y="140.1" font-size="10" fill="#555" text-anchor="end">0.6</text>
<line x1="62" y1="90.2" x2="546" y2="90.2" stroke="#e5e5e5"/>
<text x="56" y="93.7" font-size="10" fill="#555" text-anchor="end">0.8</text>
<line x1="62" y1="43.8" x2="546" y2="43.8" stroke="#e5e5e5"/>
<text x="56" y="47.3" font-size="10" fill="#555" text-anchor="end">1</text>
<rect x="62" y="30" width="484" height="258" fill="none" stroke="#888"/>
<text x="304" y="322" font-size="11" fill="#333" text-anchor="middle">x</text>
<text x="14" y="159" font-size="11" fill="#333" text-anchor="middle" transform="rotate(-90 14 159)">u</text>
<polyline points="62.00,264.62 69.68,253.43 77.37,242.30 85.05,231.24 92.73,220.29 100.41,209.47 108.10,198.80 115.78,188.32 123.46,178.03 131.14,167.98 138.83,158.18 146.51,148.65 154.19,139.42 161.87,130.51 169.56,121.94 177.24,113.72 184.92,105.89 192.60,98.45 200.29,91.43 207.97,84.84 215.65,78.69 223.33,73.00 231.02,67.79 238.70,63.06 246.38,58.84 254.06,55.11 261.75,51.91 269.43,49.22 277.11,47.07 284.79,45.45 292.48,44.36 300.16,43.82 307.84,43.82 315.52,44.36 323.21,45.45 330.89,47.07 338.57,49.22 346.25,51.91 353.94,55.11 361.62,58.84 369.30,63.06 376.98,67.79 384.67,73.00 392.35,78.69 400.03,84.84 407.71,91.43 415.40,98.45 423.08,105.89 430.76,113.72 438.44,121.94 446.13,130.51 453.81,139.42 461.49,148.65 469.17,158.18 476.86,167.98 484.54,178.03 492.22,188.32 499.90,198.80 507.59,209.47 515.27,220.29 522.95,231.24 530.63,242.30 538.32,253.43 546.00,264.62" fill="none" stroke="#bbbbbb" stroke-width="1.8"/>
<polyline points="62.00,268.88 69.68,261.95 77.37,255.05 85.05,248.20 92.73,241.41 100.41,234.70 108.10,228.09 115.78,221.59 123.46,215.22 131.14,208.99 138.83,202.91 146.51,197.01 154.19,191.29 161.87,185.76 169.56,180.45 177.24,175.36 184.92,170.50 192.60,165.89 200.29,161.54 207.97,157.45 215.65,153.64 223.33,150.12 231.02,146.89 238.70,143.96 246.38,141.34 254.06,139.03 261.75,137.04 269.43,135.38 277.11,134.04 284.79,133.04 292.48,132.37 300.16,132.03 307.84,132.03 315.52,132.37 323.21,133.04 330.89,134.04 338.57,135.38 346.25,137.04 353.94,139.03 361.62,141.34 369.30,143.96 376.98,146.89 384.67,150.12 392.35,153.64 400.03,157.45 407.71,161.54 415.40,165.89 423.08,170.50 430.76,175.36 438.44,180.45 446.13,185.76 453.81,191.29 461.49,197.01 469.17,202.91 476.86,208.99 484.54,215.22 492.22,221.59 499.90,228.09 507.59,234.70 515.27,241.41 522.95,248.20 530.63,255.05 538.32,261.95 546.00,268.88" fill="none" stroke="#2ca02c" stroke-width="1.8"/>
<polyline points="62.00,271.53 69.68,267.23 77.37,262.95 85.05,258.70 92.73,254.50 100.41,250.34 108.10,246.24 115.78,242.21 123.46,238.26 131.14,234.40 138.83,230.64 146.51,226.98 154.19,223.43 161.87,220.01 169.56,216.71 177.24,213.56 184.92,210.55 192.60,207.69 200.29,204.99 207.97,202.46 215.65,200.10 223.33,197.92 231.02,195.91 238.70,194.10 246.38,192.47 254.06,191.04 261.75,189.81 269.43,188.78 277.11,187.95 284.79,187.33 292.48,186.91 300.16,186.71 307.84,186.71 315.52,186.91 323.21,187.33 330.89,187.95 338.57,188.78 346.25,189.81 353.94,191.04 361.62,192.47 369.30,194.10 376.98,195.91 384.67,197.92 392.35,200.10 400.03,202.46 407.71,204.99 415.40,207.69 423.08,210.55 430.76,213.56 438.44,216.71 446.13,220.01 453.81,223.43 461.49,226.98 469.17,230.64 476.86,234.40 484.54,238.26 492.22,242.21 499.90,246.24 507.59,250.34 515.27,254.50 522.95,258.70 530.63,262.95 538.32,267.23 546.00,271.53" fill="none" stroke="#1f77b4" stroke-width="1.8"/>
<polyline points="62.00,273.16 69.68,270.50 77.37,267.85 85.05,265.22 92.73,262.61 100.41,260.03 108.10,257.49 115.78,255.00 123.46,252.55 131.14,250.15 138.83,247.82 146.51,245.55 154.19,243.35 161.87,241.23 169.56,239.19 177.24,237.24 184.92,235.37 192.60,233.60 200.29,231.93 207.97,230.36 215.65,228.89 223.33,227.54 231.02,226.30 238.70,225.17 246.38,224.17 254.06,223.28 261.75,222.52 269.43,221.88 277.11,221.37 284.79,220.98 292.48,220.72 300.16,220.59 307.84,220.59 315.52,220.72 323.21,220.98 330.89,221.37 338.57,221.88 346.25,222.52 353.94,223.28 361.62,224.17 369.30,225.17 376.98,226.30 384.67,227.54 392.35,228.89 400.03,230.36 407.71,231.93 415.40,233.60 423.08,235.37 430.76,237.24 438.44,239.19 446.13,241.23 453.81,243.35 461.49,245.55 469.17,247.82 476.86,250.15 484.54,252.55 492.22,255.00 499.90,257.49 507.59,260.03 515.27,262.61 522.95,265.22 530.63,267.85 538.32,270.50 546.00,273.16" fill="none" stroke="#9467bd" stroke-width="1.8"/>
<polyline points="62.00,274.18 69.68,272.53 77.37,270.88 85.05,269.25 92.73,267.64 100.41,266.04 108.10,264.47 115.78,262.92 123.46,261.40 131.14,259.92 138.83,258.47 146.51,257.07 154.19,255.70 161.87,254.39 169.56,253.12 177.24,251.91 184.92,250.75 192.60,249.66 200.29,248.62 207.97,247.65 215.65,246.74 223.33,245.90 231.02,245.13 238.70,244.44 246.38,243.81 254.06,243.26 261.75,242.79 269.43,242.39 277.11,242.07 284.79,241.84 292.48,241.68 300.16,241.60 307.84,241.60 315.52,241.68 323.21,241.84 330.89,242.07 338.57,242.39 346.25,242.79 353.94,243.26 361.62,243.81 369.30,244.44 376.98,245.13 384.67,245.90 392.35,246.74 400.03,247.65 407.71,248.62 415.40,249.66 423.08,250.75 430.76,251.91 438.44,253.12 446.13,254.39 453.81,255.70 461.49,257.07 469.17,258.47 476.86,259.92 484.54,261.40 492.22,262.92 499.90,264.47 507.59,266.04 515.27,267.64 522.95,269.25 530.63,270.88 538.32,272.53 546.00,274.18" fill="none" stroke="#d62728" stroke-width="1.8"/>
<line x1="72" y1="39" x2="94" y2="39" stroke="#bbbbbb" stroke-width="2"/>
<text x="99" y="42" font-size="11" fill="#333">t=0</text>
<line x1="72" y1="54" x2="94" y2="54" stroke="#2ca02c" stroke-width="2"/>
<text x="99" y="57" font-size="11" fill="#333">t=0.05</text>
<line x1="72" y1="69" x2="94" y2="69" stroke="#1f77b4" stroke-width="2"/>
<text x="99" y="72" font-size="11" fill="#333">t=0.1</text>
<line x1="72" y1="84" x2="94" y2="84" stroke="#9467bd" stroke-width="2"/>
<text x="99" y="87" font-size="11" fill="#333">t=0.15</text>
<line x1="72" y1="99" x2="94" y2="99" stroke="#d62728" stroke-width="2"/>
<text x="99" y="102" font-size="11" fill="#333">t=0.2</text>
</svg>
