<svg xmlns="http://www.w3.org/2000/svg" width="560" height="330" viewBox="0 0 560 330" font-family="Helvetica,Arial,sans-serif">
<rect width="560" height="330" fill="#ffffff"/>
<text x="62" y="19" font-size="14" fill="#222">Elastic (Virieux): P and S pulses separate</text>
<line x1="62.0" y1="30" x2="62.0" y2="288" stroke="#e5e5e5"/>
<text x="62.0" y="302" font-size="10" fill="#555" text-anchor="middle">0</text>
<line x1="159.2" y1="30" x2="159.2" y2="288" stroke="#e5e5e5"/>
<text x="159.2" y="302" font-size="10" fill="#555" text-anchor="middle">0.2</text>
<line x1="256.4" y1="30" x2="256.4" y2="288" stroke="#e5e5e5"/>
<text x="256.4" y="302" font-size="10" fill="#555" text-anchor="middle">0.4</text>
<line x1="353.5" y1="30" x2="353.5" y2="288" stroke="#e5e5e5"/>
<text x="353.5" y="302" font-size="10" fill="#555" text-anchor="middle">0.6</text>
<line x1="450.7" y1="30" x2="450.7" y2="288" stroke="#e5e5e5"/>
<text x="450.7" y="302" font-size="10" fill="#555" text-anchor="middle">0.8</text>
<line x1="62" y1="262.3" x2="546" y2="262.3" stroke="#e5e5e5"/>
<text x="56" y="265.8" font-size="10" fill="#555" text-anchor="end">0</text>
<line x1="62" y1="218.5" x2="546" y2="218.5" stroke="#e5e5e5"/>
<text x="56" y="222.0" font-size="10" fill="#555" text-anchor="end">0.2</text>
<line x1="62" y1="174.6" x2="546" y2="174.6" stroke="#e5e5e5"/>
<text x="56" y="178.1" font-size="10" fill="#555" text-anchor="end">0.4</text>
<line x1="62" y1="130.8" x2="546" y2="130.8" stroke="#e5e5e5"/>
<text x="56" y="134.3" font-size="10" fill="#555" text-anchor="end">0.6</text>
<line x1="62" y1="86.9" x2="546" y2="86.9" stroke="#e5e5e5"/>
<text x="56" y="90.4" font-size="10" fill="#555" text-anchor="end">0.8</text>
<line x1="62" y1="43.1" x2="546" y2="43.1" stroke="#e5e5e5"/>
<text x="56" y="46.6" font-size="10" fill="#555" text-anchor="end">1</text>
<rect x="62" y="30" width="484" height="258" fill="none" stroke="#888"/>
<text x="304" y="322" font-size="11" fill="#333" text-anchor="middle">x</text>
<text x="14" y="159" font-size="11" fill="#333" text-anchor="middle" transform="rotate(-90 14 159)">v</text>
<polyline points="62.00,262.35 63.90,262.35 65.80,262.35 67.69,262.35 69.59,262.35 71.49,262.35 73.39,262.35 75.29,262.35 77.18,262.35 79.08,262.35 80.98,262.35 82.88,262.35 84.78,262.35 86.67,262.35 88.57,262.35 90.47,262.35 92.37,262.35 94.27,262.35 96.16,262.35 98.06,262.35 99.96,262.35 101.86,262.35 103.76,262.35 105.65,262.35 107.55,262.35 109.45,262.35 111.35,262.35 113.25,262.35 115.15,262.35 117.04,262.35 118.94,262.35 120.84,262.35 122.74,262.35 124.64,262.35 126.53,262.35 128.43,262.35 130.33,262.35 132.23,262.35 134.13,262.35 136.02,262.35 137.92,262.35 139.82,262.35 141.72,262.35 143.62,262.35 145.51,262.35 147.41,262.35 149.31,262.35 151.21,262.35 153.11,262.35 155.00,262.35 156.90,262.35 158.80,262.35 160.70,262.35 162.60,262.35 164.49,262.35 166.39,262.35 168.29,262.35 170.19,262.34 172.09,262.34 173.98,262.34 175.88,262.34 177.78,262.32 179.68,262.26 181.58,262.09 183.47,261.66 185.37,260.66 187.27,258.51 189.17,254.25 191.07,246.51 192.96,233.63 194.86,214.10 196.76,187.25 198.66,154.04 200.56,117.61 202.45,83.14 204.35,56.76 206.25,43.82 208.15,47.13 210.05,65.96 211.95,96.30 213.84,132.27 215.74,167.93 217.64,198.85 219.54,222.78 221.44,239.50 223.33,250.13 225.23,256.29 227.13,259.56 229.03,261.16 230.93,261.88 232.82,262.17 234.72,262.29 236.62,262.33 238.52,262.34 240.42,262.34 242.31,262.34 244.21,262.34 246.11,262.35 248.01,262.35 249.91,262.35 251.80,262.35 253.70,262.35 255.60,262.35 257.50,262.35 259.40,262.35 261.29,262.35 263.19,262.35 265.09,262.35 266.99,262.35 268.89,262.35 270.78,262.35 272.68,262.35 274.58,262.35 276.48,262.35 278.38,262.35 280.27,262.35 282.17,262.35 284.07,262.35 285.97,262.35 287.87,262.35 289.76,262.35 291.66,262.35 293.56,262.35 295.46,262.35 297.36,262.35 299.25,262.35 301.15,262.35 303.05,262.35 304.95,262.35 306.85,262.35 308.75,262.35 310.64,262.35 312.54,262.35 314.44,262.35 316.34,262.35 318.24,262.35 320.13,262.35 322.03,262.35 323.93,262.35 325.83,262.35 327.73,262.35 329.62,262.35 331.52,262.35 333.42,262.35 335.32,262.35 337.22,262.35 339.11,262.35 341.01,262.35 342.91,262.35 344.81,262.35 346.71,262.35 348.60,262.35 350.50,262.35 352.40,262.35 354.30,262.35 356.20,262.35 358.09,262.35 359.99,262.35 361.89,262.35 363.79,262.35 365.69,262.35 367.58,262.35 369.48,262.35 371.38,262.35 373.28,262.35 375.18,262.35 377.07,262.35 378.97,262.35 380.87,262.35 382.77,262.35 384.67,262.35 386.56,262.35 388.46,262.35 390.36,262.35 392.26,262.35 394.16,262.35 396.05,262.35 397.95,262.35 399.85,262.35 401.75,262.35 403.65,262.35 405.55,262.35 407.44,262.35 409.34,262.35 411.24,262.35 413.14,262.35 415.04,262.35 416.93,262.35 418.83,262.35 420.73,262.35 422.63,262.35 424.53,262.35 426.42,262.35 428.32,262.35 430.22,262.35 432.12,262.35 434.02,262.35 435.91,262.35 437.81,262.35 439.71,262.35 441.61,262.35 443.51,262.35 445.40,262.35 447.30,262.35 449.20,262.35 451.10,262.35 453.00,262.35 454.89,262.35 456.79,262.35 458.69,262.35 460.59,262.35 462.49,262.35 464.38,262.35 466.28,262.35 468.18,262.35 470.08,262.35 471.98,262.35 473.87,262.35 475.77,262.35 477.67,262.35 479.57,262.35 481.47,262.35 483.36,262.35 485.26,262.35 487.16,262.35 489.06,262.35 490.96,262.35 492.85,262.35 494.75,262.35 496.65,262.35 498.55,262.35 500.45,262.35 502.35,262.35 504.24,262.35 506.14,262.35 508.04,262.35 509.94,262.35 511.84,262.35 513.73,262.35 515.63,262.35 517.53,262.35 519.43,262.35 521.33,262.35 523.22,262.35 525.12,262.35 527.02,262.35 528.92,262.35 530.82,262.35 532.71,262.35 534.61,262.35 536.51,262.35 538.41,262.35 540.31,262.35 542.20,262.35 544.10,262.35 546.00,262.35" fill="none" stroke="#999999" stroke-width="1.8" stroke-dasharray="6 4"/>
<polyline points="62.00,262.34 63.90,262.34 65.80,262.35 67.69,262.35 69.59,262.35 71.49,262.35 73.39,262.35 75.29,262.35 77.18,262.35 79.08,262.35 80.98,262.35 82.88,262.35 84.78,262.35 86.67,262.35 88.57,262.35 90.47,262.35 92.37,262.35 94.27,262.35 96.16,262.35 98.06,262.35 99.96,262.35 101.86,262.35 103.76,262.35 105.65,262.35 107.55,262.35 109.45,262.35 111.35,262.35 113.25,262.35 115.15,262.35 117.04,262.35 118.94,262.35 120.84,262.35 122.74,262.35 124.64,262.35 126.53,262.35 128.43,262.35 130.33,262.35 132.23,262.35 134.13,262.35 136.02,262.35 137.92,262.35 139.82,262.35 141.72,262.35 143.62,262.35 145.51,262.35 147.41,262.35 149.31,262.35 151.21,262.35 153.11,262.35 155.00,262.35 156.90,262.35 158.80,262.35 160.70,262.35 162.60,262.35 164.49,262.35 166.39,262.35 168.29,262.35 170.19,262.35 172.09,262.35 173.98,262.35 175.88,262.35 177.78,262.35 179.68,262.35 181.58,262.35 183.47,262.35 185.37,262.35 187.27,262.35 189.17,262.35 191.07,262.35 192.96,262.35 194.86,262.35 196.76,262.35 198.66,262.35 200.56,262.35 202.45,262.35 204.35,262.35 206.25,262.35 208.15,262.35 210.05,262.35 211.95,262.35 213.84,262.35 215.74,262.35 217.64,262.35 219.54,262.35 221.44,262.35 223.33,262.35 225.23,262.35 227.13,262.35 229.03,262.35 230.93,262.35 232.82,262.35 234.72,262.35 236.62,262.35 238.52,262.35 240.42,262.35 242.31,262.35 244.21,262.35 246.11,262.35 248.01,262.35 249.91,262.35 251.80,262.35 253.70,262.35 255.60,262.35 257.50,262.35 259.40,262.35 261.29,262.35 263.19,262.35 265.09,262.35 266.99,262.35 268.89,262.35 270.78,262.35 272.68,262.35 274.58,262.35 276.48,262.35 278.38,262.35 280.27,262.35 282.17,262.35 284.07,262.35 285.97,262.35 287.87,262.35 289.76,262.35 291.66,262.35 293.56,262.35 295.46,262.35 297.36,262.35 299.25,262.35 301.15,262.35 303.05,262.35 304.95,262.35 306.85,262.35 308.75,262.35 310.64,262.35 312.54,262.35 314.44,262.35 316.34,262.35 318.24,262.35 320.13,262.35 322.03,262.35 323.93,262.35 325.83,262.35 327.73,262.35 329.62,262.35 331.52,262.35 333.42,262.35 335.32,262.35 337.22,262.35 339.11,262.35 341.01,262.35 342.91,262.35 344.81,262.35 346.71,262.35 348.60,262.35 350.50,262.35 352.40,262.35 354.30,262.35 356.20,262.35 358.09,262.35 359.99,262.35 361.89,262.35 363.79,262.35 365.69,262.35 367.58,262.35 369.48,262.35 371.38,262.36 373.28,262.37 375.18,262.40 377.07,262.43 378.97,262.49 380.87,262.58 382.77,262.70 384.67,262.87 386.56,263.09 388.46,263.35 390.36,263.63 392.26,263.90 394.16,264.11 396.05,264.19 397.95,264.07 399.85,263.71 401.75,263.10 403.65,262.28 405.55,261.37 407.44,260.52 409.34,259.91 411.24,259.66 413.14,259.83 415.04,260.36 416.93,261.09 418.83,261.82 420.73,262.37 422.63,262.65 424.53,262.67 426.42,262.54 428.32,262.38 430.22,262.28 432.12,262.27 434.02,262.30 435.91,262.35 437.81,262.37 439.71,262.36 441.61,262.35 443.51,262.34 445.40,262.33 447.30,262.33 449.20,262.35 451.10,262.39 453.00,262.39 454.89,262.31 456.79,262.19 458.69,262.20 460.59,262.45 462.49,262.81 464.38,262.91 466.28,262.34 468.18,261.14 470.08,260.10 471.98,260.50 473.87,263.33 475.77,268.30 477.67,273.19 479.57,274.18 481.47,266.99 483.36,248.62 485.26,218.73 487.16,180.12 489.06,138.18 490.96,99.42 492.85,69.74 494.75,53.07 496.65,50.69 498.55,61.33 500.45,81.92 502.35,108.55 504.24,137.35 506.14,165.18 508.04,189.90 509.94,210.43 511.84,226.52 513.73,238.49 515.63,247.00 517.53,252.79 519.43,256.59 521.33,258.98 523.22,260.44 525.12,261.29 527.02,261.78 528.92,262.05 530.82,262.20 532.71,262.27 534.61,262.31 536.51,262.33 538.41,262.34 540.31,262.34 542.20,262.34 544.10,262.34 546.00,262.34" fill="none" stroke="#1f77b4" stroke-width="1.8"/>
<polyline points="62.00,262.68 63.90,262.20 65.80,261.71 67.69,261.30 69.59,261.08 71.49,261.07 73.39,261.26 75.29,261.56 77.18,261.87 79.08,262.13 80.98,262.29 82.88,262.36 84.78,262.37 86.67,262.36 88.57,262.35 90.47,262.34 92.37,262.34 94.27,262.34 96.16,262.35 98.06,262.35 99.96,262.35 101.86,262.34 103.76,262.35 105.65,262.35 107.55,262.35 109.45,262.35 111.35,262.35 113.25,262.35 115.15,262.35 117.04,262.35 118.94,262.35 120.84,262.35 122.74,262.35 124.64,262.35 126.53,262.35 128.43,262.35 130.33,262.35 132.23,262.35 134.13,262.35 136.02,262.35 137.92,262.35 139.82,262.35 141.72,262.35 143.62,262.35 145.51,262.35 147.41,262.35 149.31,262.35 151.21,262.35 153.11,262.35 155.00,262.35 156.90,262.35 158.80,262.35 160.70,262.35 162.60,262.35 164.49,262.35 166.39,262.35 168.29,262.35 170.19,262.35 172.09,262.35 173.98,262.35 175.88,262.35 177.78,262.35 179.68,262.35 181.58,262.35 183.47,262.35 185.37,262.35 187.27,262.35 189.17,262.35 191.07,262.35 192.96,262.35 194.86,262.35 196.76,262.35 198.66,262.35 200.56,262.35 202.45,262.35 204.35,262.35 206.25,262.35 208.15,262.35 210.05,262.35 211.95,262.35 213.84,262.35 215.74,262.35 217.64,262.35 219.54,262.35 221.44,262.35 223.33,262.35 225.23,262.35 227.13,262.35 229.03,262.35 230.93,262.35 232.82,262.35 234.72,262.35 236.62,262.35 238.52,262.35 240.42,262.35 242.31,262.35 244.21,262.35 246.11,262.35 248.01,262.35 249.91,262.35 251.80,262.35 253.70,262.35 255.60,262.35 257.50,262.35 259.40,262.35 261.29,262.35 263.19,262.35 265.09,262.35 266.99,262.35 268.89,262.35 270.78,262.35 272.68,262.35 274.58,262.35 276.48,262.35 278.38,262.35 280.27,262.35 282.17,262.35 284.07,262.35 285.97,262.35 287.87,262.35 289.76,262.35 291.66,262.35 293.56,262.35 295.46,262.35 297.36,262.35 299.25,262.35 301.15,262.35 303.05,262.35 304.95,262.35 306.85,262.34 308.75,262.35 310.64,262.35 312.54,262.35 314.44,262.34 316.34,262.34 318.24,262.35 320.13,262.36 322.03,262.35 323.93,262.30 325.83,262.23 327.73,262.27 329.62,262.64 331.52,263.40 333.42,263.94 335.32,262.57 337.22,256.53 339.11,242.73 341.01,219.10 342.91,185.92 344.81,146.52 346.71,106.69 348.60,73.19 350.50,51.77 352.40,45.58 354.30,54.55 356.20,75.83 358.09,104.88 359.99,136.84 361.89,167.61 363.79,194.44 365.69,216.01 367.58,232.19 369.48,243.59 371.38,251.18 373.28,255.97 375.18,258.85 377.07,260.51 378.97,261.41 380.87,261.89 382.77,262.13 384.67,262.25 386.56,262.30 388.46,262.33 390.36,262.34 392.26,262.34 394.16,262.34 396.05,262.34 397.95,262.34 399.85,262.34 401.75,262.35 403.65,262.35 405.55,262.35 407.44,262.35 409.34,262.35 411.24,262.35 413.14,262.35 415.04,262.35 416.93,262.35 418.83,262.35 420.73,262.35 422.63,262.35 424.53,262.35 426.42,262.35 428.32,262.35 430.22,262.35 432.12,262.35 434.02,262.35 435.91,262.35 437.81,262.35 439.71,262.35 441.61,262.35 443.51,262.35 445.40,262.35 447.30,262.35 449.20,262.35 451.10,262.35 453.00,262.35 454.89,262.35 456.79,262.35 458.69,262.35 460.59,262.35 462.49,262.35 464.38,262.35 466.28,262.35 468.18,262.35 470.08,262.35 471.98,262.35 473.87,262.35 475.77,262.35 477.67,262.35 479.57,262.35 481.47,262.35 483.36,262.35 485.26,262.35 487.16,262.35 489.06,262.35 490.96,262.35 492.85,262.35 494.75,262.35 496.65,262.35 498.55,262.35 500.45,262.35 502.35,262.35 504.24,262.35 506.14,262.35 508.04,262.35 509.94,262.35 511.84,262.35 513.73,262.35 515.63,262.35 517.53,262.35 519.43,262.35 521.33,262.36 523.22,262.37 525.12,262.39 527.02,262.43 528.92,262.49 530.82,262.58 532.71,262.70 534.61,262.85 536.51,263.02 538.41,263.19 540.31,263.32 542.20,263.37 544.10,263.29 546.00,263.06" fill="none" stroke="#d62728" stroke-width="1.8"/>
<line x1="72" y1="39" x2="94" y2="39" stroke="#999999" stroke-width="2" stroke-dasharray="6 4"/>
<text x="99" y="42" font-size="11" fill="#333">vx (t=0)</text>
<line x1="72" y1="54" x2="94" y2="54" stroke="#1f77b4" stroke-width="2"/>
<text x="99" y="57" font-size="11" fill="#333">vx : P wave (vp=2)</text>
<line x1="72" y1="69" x2="94" y2="69" stroke="#d62728" stroke-width="2"/>
<text x="99" y="72" font-size="11" fill="#333">vy : S wave (vs=1)</text>
</svg>
