<svg xmlns="http://www.w3.org/2000/svg" width="560" height="330" viewBox="0 0 560 330" font-family="Helvetica,Arial,sans-serif">
<rect width="560" height="330" fill="#ffffff"/>
<text x="62" y="19" font-size="14" fill="#222">Laplacian symbol error |lam(k)+k^2|</text>
<line x1="173.7" y1="30" x2="173.7" y2="288" stroke="#e5e5e5"/>
<text x="173.7" y="302" font-size="10" fill="#555" text-anchor="middle">5</text>
<line x1="297.8" y1="30" x2="297.8" y2="288" stroke="#e5e5e5"/>
<text x="297.8" y="302" font-size="10" fill="#555" text-anchor="middle">10</text>
<line x1="421.9" y1="30" x2="421.9" y2="288" stroke="#e5e5e5"/>
<text x="421.9" y="302" font-size="10" fill="#555" text-anchor="middle">15</text>
<line x1="546.0" y1="30" x2="546.0" y2="288" stroke="#e5e5e5"/>
<text x="546.0" y="302" font-size="10" fill="#555" text-anchor="middle">20</text>
<line x1="62" y1="279.0" x2="546" y2="279.0" stroke="#e5e5e5"/>
<text x="56" y="282.5" font-size="10" fill="#555" text-anchor="end">-8</text>
<line x1="62" y1="232.2" x2="546" y2="232.2" stroke="#e5e5e5"/>
<text x="56" y="235.7" font-size="10" fill="#555" text-anchor="end">-6</text>
<line x1="62" y1="185.4" x2="546" y2="185.4" stroke="#e5e5e5"/>
<text x="56" y="188.9" font-size="10" fill="#555" text-anchor="end">-4</text>
<line x1="62" y1="138.7" x2="546" y2="138.7" stroke="#e5e5e5"/>
<text x="56" y="142.2" font-size="10" fill="#555" text-anchor="end">-2</text>
<line x1="62" y1="91.9" x2="546" y2="91.9" stroke="#e5e5e5"/>
<text x="56" y="95.4" font-size="10" fill="#555" text-anchor="end">0</text>
<line x1="62" y1="45.1" x2="546" y2="45.1" stroke="#e5e5e5"/>
<text x="56" y="48.6" font-size="10" fill="#555" text-anchor="end">2</text>
<rect x="62" y="30" width="484" height="258" fill="none" stroke="#888"/>
<text x="304" y="322" font-size="11" fill="#333" text-anchor="middle">k</text>
<text x="14" y="159" font-size="11" fill="#333" text-anchor="middle" transform="rotate(-90 14 159)">log10 error</text>
<polyline points="62.00,192.45 68.21,175.97 74.41,164.28 80.62,155.21 86.82,147.81 93.03,141.54 99.23,136.12 105.44,131.34 111.64,127.06 117.85,123.19 124.05,119.66 130.26,116.41 136.46,113.40 142.67,110.60 148.87,107.99 155.08,105.53 161.28,103.21 167.49,101.02 173.69,98.95 179.90,96.97 186.10,95.09 192.31,93.29 198.51,91.57 204.72,89.92 210.92,88.34 217.13,86.82 223.33,85.35 229.54,83.94 235.74,82.57 241.95,81.25 248.15,79.97 254.36,78.73 260.56,77.53 266.77,76.37 272.97,75.24 279.18,74.14 285.38,73.07 291.59,72.03 297.79,71.02 304.00,70.03 310.21,69.07 316.41,68.13 322.62,67.21 328.82,66.32 335.03,65.44 341.23,64.59 347.44,63.75 353.64,62.93 359.85,62.13 366.05,61.35 372.26,60.58 378.46,59.83 384.67,59.09 390.87,58.37 397.08,57.66 403.28,56.96 409.49,56.28 415.69,55.61 421.90,54.95 428.10,54.30 434.31,53.66 440.51,53.04 446.72,52.42 452.92,51.82 459.13,51.23 465.33,50.64 471.54,50.07 477.74,49.50 483.95,48.95 490.15,48.40 496.36,47.86 502.56,47.33 508.77,46.80 514.97,46.29 521.18,45.78 527.38,45.28 533.59,44.79 539.79,44.30 546.00,43.82" fill="none" stroke="#999999" stroke-width="1.8"/>
<polyline points="62.00,274.18 68.21,249.46 74.41,231.93 80.62,218.33 86.82,207.22 93.03,197.83 99.23,189.70 105.44,182.52 111.64,176.11 117.85,170.31 124.05,165.02 130.26,160.15 136.46,155.65 142.67,151.46 148.87,147.54 155.08,143.87 161.28,140.40 167.49,137.12 173.69,134.02 179.90,131.07 186.10,128.25 192.31,125.57 198.51,123.00 204.72,120.54 210.92,118.17 217.13,115.90 223.33,113.71 229.54,111.61 235.74,109.57 241.95,107.61 248.15,105.70 254.36,103.86 260.56,102.08 266.77,100.35 272.97,98.67 279.18,97.04 285.38,95.46 291.59,93.91 297.79,92.41 304.00,90.95 310.21,89.53 316.41,88.14 322.62,86.79 328.82,85.46 335.03,84.17 341.23,82.91 347.44,81.68 353.64,80.48 359.85,79.30 366.05,78.15 372.26,77.02 378.46,75.91 384.67,74.83 390.87,73.77 397.08,72.74 403.28,71.72 409.49,70.72 415.69,69.74 421.90,68.78 428.10,67.84 434.31,66.91 440.51,66.01 446.72,65.11 452.92,64.24 459.13,63.38 465.33,62.53 471.54,61.70 477.74,60.89 483.95,60.08 490.15,59.30 496.36,58.52 502.56,57.76 508.77,57.01 514.97,56.27 521.18,55.54 527.38,54.83 533.59,54.12 539.79,53.43 546.00,52.75" fill="none" stroke="#1f77b4" stroke-width="1.8"/>
<line x1="72" y1="39" x2="94" y2="39" stroke="#999999" stroke-width="2"/>
<text x="99" y="42" font-size="11" fill="#333">2nd order (dC2)</text>
<line x1="72" y1="54" x2="94" y2="54" stroke="#1f77b4" stroke-width="2"/>
<text x="99" y="57" font-size="11" fill="#333">4th order (CAS-derived)</text>
</svg>
