<svg xmlns="http://www.w3.org/2000/svg" width="560" height="330" viewBox="0 0 560 330" font-family="Helvetica,Arial,sans-serif">
<rect width="560" height="330" fill="#ffffff"/>
<text x="62" y="19" font-size="14" fill="#222">phi^4 kink-antikink at v=+-0.2</text>
<line x1="62.0" y1="30" x2="62.0" y2="288" stroke="#e5e5e5"/>
<text x="62.0" y="302" font-size="10" fill="#555" text-anchor="middle">0</text>
<line x1="213.8" y1="30" x2="213.8" y2="288" stroke="#e5e5e5"/>
<text x="213.8" y="302" font-size="10" fill="#555" text-anchor="middle">20</text>
<line x1="365.7" y1="30" x2="365.7" y2="288" stroke="#e5e5e5"/>
<text x="365.7" y="302" font-size="10" fill="#555" text-anchor="middle">40</text>
<line x1="517.5" y1="30" x2="517.5" y2="288" stroke="#e5e5e5"/>
<text x="517.5" y="302" font-size="10" fill="#555" text-anchor="middle">60</text>
<line x1="62" y1="274.1" x2="546" y2="274.1" stroke="#e5e5e5"/>
<text x="56" y="277.6" font-size="10" fill="#555" text-anchor="end">-1</text>
<line x1="62" y1="216.6" x2="546" y2="216.6" stroke="#e5e5e5"/>
<text x="56" y="220.1" font-size="10" fill="#555" text-anchor="end">-0.5</text>
<line x1="62" y1="159.0" x2="546" y2="159.0" stroke="#e5e5e5"/>
<text x="56" y="162.5" font-size="10" fill="#555" text-anchor="end">0</text>
<line x1="62" y1="101.4" x2="546" y2="101.4" stroke="#e5e5e5"/>
<text x="56" y="104.9" font-size="10" fill="#555" text-anchor="end">0.5</text>
<line x1="62" y1="43.9" x2="546" y2="43.9" stroke="#e5e5e5"/>
<text x="56" y="47.4" font-size="10" fill="#555" text-anchor="end">1</text>
<rect x="62" y="30" width="484" height="258" fill="none" stroke="#888"/>
<text x="304" y="322" font-size="11" fill="#333" text-anchor="middle">x</text>
<text x="14" y="159" font-size="11" fill="#333" text-anchor="middle" transform="rotate(-90 14 159)">phi</text>
<polyline points="62.00,274.14 63.90,274.14 65.80,274.14 67.69,274.14 69.59,274.14 71.49,274.14 73.39,274.14 75.29,274.14 77.18,274.14 79.08,274.14 80.98,274.14 82.88,274.14 84.78,274.14 86.67,274.14 88.57,274.14 90.47,274.14 92.37,274.14 94.27,274.14 96.16,274.14 98.06,274.14 99.96,274.14 101.86,274.14 103.76,274.14 105.65,274.14 107.55,274.14 109.45,274.14 111.35,274.14 113.25,274.14 115.15,274.14 117.04,274.14 118.94,274.14 120.84,274.14 122.74,274.14 124.64,274.14 126.53,274.13 128.43,274.13 130.33,274.13 132.23,274.13 134.13,274.12 136.02,274.11 137.92,274.10 139.82,274.08 141.72,274.06 143.62,274.02 145.51,273.97 147.41,273.90 149.31,273.79 151.21,273.64 153.11,273.43 155.00,273.12 156.90,272.67 158.80,272.04 160.70,271.15 162.60,269.87 164.49,268.06 166.39,265.52 168.29,261.98 170.19,257.08 172.09,250.44 173.98,241.59 175.88,230.15 177.78,215.87 179.68,198.83 181.58,179.55 183.47,159.00 185.37,138.45 187.27,119.17 189.17,102.13 191.07,87.85 192.96,76.41 194.86,67.57 196.76,60.92 198.66,56.03 200.56,52.48 202.45,49.94 204.35,48.14 206.25,46.86 208.15,45.96 210.05,45.33 211.95,44.89 213.84,44.58 215.74,44.36 217.64,44.21 219.54,44.11 221.44,44.04 223.33,43.98 225.23,43.95 227.13,43.92 229.03,43.91 230.93,43.89 232.82,43.89 234.72,43.88 236.62,43.88 238.52,43.87 240.42,43.87 242.31,43.87 244.21,43.87 246.11,43.87 248.01,43.87 249.91,43.87 251.80,43.87 253.70,43.87 255.60,43.87 257.50,43.87 259.40,43.87 261.29,43.87 263.19,43.87 265.09,43.87 266.99,43.87 268.89,43.87 270.78,43.87 272.68,43.87 274.58,43.87 276.48,43.87 278.38,43.87 280.27,43.87 282.17,43.87 284.07,43.87 285.97,43.87 287.87,43.87 289.76,43.87 291.66,43.87 293.56,43.87 295.46,43.87 297.36,43.87 299.25,43.87 301.15,43.87 303.05,43.87 304.95,43.87 306.85,43.87 308.75,43.87 310.64,43.87 312.54,43.87 314.44,43.87 316.34,43.87 318.24,43.87 320.13,43.87 322.03,43.87 323.93,43.87 325.83,43.87 327.73,43.87 329.62,43.87 331.52,43.87 333.42,43.87 335.32,43.87 337.22,43.87 339.11,43.87 341.01,43.87 342.91,43.87 344.81,43.87 346.71,43.87 348.60,43.87 350.50,43.87 352.40,43.87 354.30,43.87 356.20,43.87 358.09,43.87 359.99,43.87 361.89,43.87 363.79,43.87 365.69,43.87 367.58,43.87 369.48,43.87 371.38,43.87 373.28,43.88 375.18,43.88 377.07,43.89 378.97,43.89 380.87,43.91 382.77,43.92 384.67,43.95 386.56,43.98 388.46,44.04 390.36,44.11 392.26,44.21 394.16,44.36 396.05,44.58 397.95,44.89 399.85,45.33 401.75,45.96 403.65,46.86 405.55,48.14 407.44,49.94 409.34,52.48 411.24,56.03 413.14,60.92 415.04,67.57 416.93,76.41 418.83,87.85 420.73,102.13 422.63,119.17 424.53,138.45 426.42,159.00 428.32,179.55 430.22,198.83 432.12,215.87 434.02,230.15 435.91,241.59 437.81,250.44 439.71,257.08 441.61,261.98 443.51,265.52 445.40,268.06 447.30,269.87 449.20,271.15 451.10,272.04 453.00,272.67 454.89,273.12 456.79,273.43 458.69,273.64 460.59,273.79 462.49,273.90 464.38,273.97 466.28,274.02 468.18,274.06 470.08,274.08 471.98,274.10 473.87,274.11 475.77,274.12 477.67,274.13 479.57,274.13 481.47,274.13 483.36,274.13 485.26,274.14 487.16,274.14 489.06,274.14 490.96,274.14 492.85,274.14 494.75,274.14 496.65,274.14 498.55,274.14 500.45,274.14 502.35,274.14 504.24,274.14 506.14,274.14 508.04,274.14 509.94,274.14 511.84,274.14 513.73,274.14 515.63,274.14 517.53,274.14 519.43,274.14 521.33,274.14 523.22,274.14 525.12,274.14 527.02,274.14 528.92,274.14 530.82,274.14 532.71,274.14 534.61,274.14 536.51,274.14 538.41,274.14 540.31,274.14 542.20,274.14 544.10,274.14 546.00,274.14" fill="none" stroke="#bbbbbb" stroke-width="1.8"/>
<polyline points="62.00,274.08 63.90,274.09 65.80,274.10 67.69,274.12 69.59,274.14 71.49,274.15 73.39,274.16 75.29,274.16 77.18,274.17 79.08,274.17 80.98,274.18 82.88,274.18 84.78,274.18 86.67,274.17 88.57,274.16 90.47,274.15 92.37,274.14 94.27,274.13 96.16,274.12 98.06,274.11 99.96,274.11 101.86,274.10 103.76,274.10 105.65,274.10 107.55,274.10 109.45,274.10 111.35,274.10 113.25,274.11 115.15,274.11 117.04,274.12 118.94,274.12 120.84,274.12 122.74,274.13 124.64,274.13 126.53,274.13 128.43,274.14 130.33,274.14 132.23,274.14 134.13,274.15 136.02,274.15 137.92,274.15 139.82,274.15 141.72,274.15 143.62,274.15 145.51,274.15 147.41,274.15 149.31,274.15 151.21,274.15 153.11,274.15 155.00,274.15 156.90,274.14 158.80,274.14 160.70,274.14 162.60,274.13 164.49,274.12 166.39,274.11 168.29,274.10 170.19,274.08 172.09,274.05 173.98,274.01 175.88,273.95 177.78,273.87 179.68,273.76 181.58,273.60 183.47,273.37 185.37,273.05 187.27,272.59 189.17,271.95 191.07,271.03 192.96,269.72 194.86,267.89 196.76,265.31 198.66,261.72 200.56,256.78 202.45,250.07 204.35,241.15 206.25,229.62 208.15,215.22 210.05,198.03 211.95,178.60 213.84,157.92 215.74,137.30 217.64,118.04 219.54,101.10 221.44,86.98 223.33,75.72 225.23,67.04 227.13,60.53 229.03,55.75 230.93,52.28 232.82,49.80 234.72,48.04 236.62,46.79 238.52,45.92 240.42,45.30 242.31,44.87 244.21,44.57 246.11,44.37 248.01,44.22 249.91,44.12 251.80,44.05 253.70,44.00 255.60,43.97 257.50,43.94 259.40,43.92 261.29,43.91 263.19,43.90 265.09,43.89 266.99,43.88 268.89,43.87 270.78,43.86 272.68,43.85 274.58,43.84 276.48,43.83 278.38,43.82 280.27,43.82 282.17,43.82 284.07,43.83 285.97,43.84 287.87,43.85 289.76,43.86 291.66,43.87 293.56,43.88 295.46,43.88 297.36,43.88 299.25,43.88 301.15,43.89 303.05,43.90 304.95,43.90 306.85,43.90 308.75,43.89 310.64,43.88 312.54,43.88 314.44,43.88 316.34,43.88 318.24,43.87 320.13,43.86 322.03,43.85 323.93,43.84 325.83,43.83 327.73,43.82 329.62,43.82 331.52,43.82 333.42,43.83 335.32,43.84 337.22,43.85 339.11,43.86 341.01,43.87 342.91,43.88 344.81,43.89 346.71,43.90 348.60,43.91 350.50,43.92 352.40,43.94 354.30,43.97 356.20,44.00 358.09,44.05 359.99,44.12 361.89,44.22 363.79,44.37 365.69,44.57 367.58,44.87 369.48,45.30 371.38,45.92 373.28,46.79 375.18,48.04 377.07,49.80 378.97,52.28 380.87,55.75 382.77,60.53 384.67,67.04 386.56,75.72 388.46,86.98 390.36,101.10 392.26,118.04 394.16,137.30 396.05,157.92 397.95,178.60 399.85,198.03 401.75,215.22 403.65,229.62 405.55,241.15 407.44,250.07 409.34,256.78 411.24,261.72 413.14,265.31 415.04,267.89 416.93,269.72 418.83,271.03 420.73,271.95 422.63,272.59 424.53,273.05 426.42,273.37 428.32,273.60 430.22,273.76 432.12,273.87 434.02,273.95 435.91,274.01 437.81,274.05 439.71,274.08 441.61,274.10 443.51,274.11 445.40,274.12 447.30,274.13 449.20,274.14 451.10,274.14 453.00,274.14 454.89,274.15 456.79,274.15 458.69,274.15 460.59,274.15 462.49,274.15 464.38,274.15 466.28,274.15 468.18,274.15 470.08,274.15 471.98,274.15 473.87,274.15 475.77,274.15 477.67,274.14 479.57,274.14 481.47,274.14 483.36,274.13 485.26,274.13 487.16,274.13 489.06,274.12 490.96,274.12 492.85,274.12 494.75,274.11 496.65,274.11 498.55,274.10 500.45,274.10 502.35,274.10 504.24,274.10 506.14,274.10 508.04,274.10 509.94,274.11 511.84,274.11 513.73,274.12 515.63,274.13 517.53,274.14 519.43,274.15 521.33,274.16 523.22,274.17 525.12,274.18 527.02,274.18 528.92,274.18 530.82,274.17 532.71,274.17 534.61,274.16 536.51,274.16 538.41,274.15 540.31,274.14 542.20,274.12 544.10,274.10 546.00,274.09" fill="none" stroke="#2ca02c" stroke-width="1.8"/>
<polyline points="62.00,274.16 63.90,274.16 65.80,274.16 67.69,274.16 69.59,274.16 71.49,274.15 73.39,274.15 75.29,274.15 77.18,274.14 79.08,274.14 80.98,274.14 82.88,274.13 84.78,274.13 86.67,274.13 88.57,274.13 90.47,274.13 92.37,274.13 94.27,274.13 96.16,274.13 98.06,274.14 99.96,274.14 101.86,274.14 103.76,274.15 105.65,274.15 107.55,274.16 109.45,274.16 111.35,274.16 113.25,274.17 115.15,274.17 117.04,274.16 118.94,274.16 120.84,274.16 122.74,274.15 124.64,274.14 126.53,274.14 128.43,274.13 130.33,274.12 132.23,274.11 134.13,274.11 136.02,274.10 137.92,274.10 139.82,274.10 141.72,274.11 143.62,274.11 145.51,274.12 147.41,274.13 149.31,274.14 151.21,274.15 153.11,274.16 155.00,274.16 156.90,274.17 158.80,274.17 160.70,274.16 162.60,274.14 164.49,274.13 166.39,274.11 168.29,274.09 170.19,274.09 172.09,274.10 173.98,274.12 175.88,274.14 177.78,274.16 179.68,274.17 181.58,274.17 183.47,274.16 185.37,274.15 187.27,274.13 189.17,274.11 191.07,274.09 192.96,274.08 194.86,274.07 196.76,274.08 198.66,274.09 200.56,274.09 202.45,274.08 204.35,274.05 206.25,274.00 208.15,273.92 210.05,273.80 211.95,273.64 213.84,273.41 215.74,273.08 217.64,272.61 219.54,271.95 221.44,271.02 223.33,269.70 225.23,267.84 227.13,265.23 229.03,261.59 230.93,256.59 232.82,249.79 234.72,240.76 236.62,229.08 238.52,214.52 240.42,197.17 242.31,177.60 244.21,156.84 246.11,136.21 248.01,117.01 249.91,100.18 251.80,86.20 253.70,75.07 255.60,66.52 257.50,60.12 259.40,55.43 261.29,52.04 263.19,49.61 265.09,47.89 266.99,46.68 268.89,45.83 270.78,45.24 272.68,44.82 274.58,44.53 276.48,44.33 278.38,44.19 280.27,44.10 282.17,44.03 284.07,43.98 285.97,43.95 287.87,43.93 289.76,43.91 291.66,43.90 293.56,43.89 295.46,43.89 297.36,43.89 299.25,43.88 301.15,43.88 303.05,43.88 304.95,43.88 306.85,43.88 308.75,43.88 310.64,43.88 312.54,43.89 314.44,43.89 316.34,43.89 318.24,43.90 320.13,43.91 322.03,43.93 323.93,43.95 325.83,43.98 327.73,44.03 329.62,44.10 331.52,44.19 333.42,44.33 335.32,44.53 337.22,44.82 339.11,45.24 341.01,45.83 342.91,46.68 344.81,47.89 346.71,49.61 348.60,52.04 350.50,55.43 352.40,60.12 354.30,66.52 356.20,75.07 358.09,86.20 359.99,100.18 361.89,117.01 363.79,136.21 365.69,156.84 367.58,177.60 369.48,197.17 371.38,214.52 373.28,229.08 375.18,240.76 377.07,249.79 378.97,256.59 380.87,261.59 382.77,265.23 384.67,267.84 386.56,269.70 388.46,271.02 390.36,271.95 392.26,272.61 394.16,273.08 396.05,273.41 397.95,273.64 399.85,273.80 401.75,273.92 403.65,274.00 405.55,274.05 407.44,274.08 409.34,274.09 411.24,274.09 413.14,274.08 415.04,274.07 416.93,274.08 418.83,274.09 420.73,274.11 422.63,274.13 424.53,274.15 426.42,274.16 428.32,274.17 430.22,274.17 432.12,274.16 434.02,274.14 435.91,274.12 437.81,274.10 439.71,274.09 441.61,274.09 443.51,274.11 445.40,274.13 447.30,274.14 449.20,274.16 451.10,274.17 453.00,274.17 454.89,274.16 456.79,274.16 458.69,274.15 460.59,274.14 462.49,274.13 464.38,274.12 466.28,274.11 468.18,274.11 470.08,274.10 471.98,274.10 473.87,274.10 475.77,274.11 477.67,274.11 479.57,274.12 481.47,274.13 483.36,274.14 485.26,274.14 487.16,274.15 489.06,274.16 490.96,274.16 492.85,274.16 494.75,274.17 496.65,274.17 498.55,274.16 500.45,274.16 502.35,274.16 504.24,274.15 506.14,274.15 508.04,274.14 509.94,274.14 511.84,274.14 513.73,274.13 515.63,274.13 517.53,274.13 519.43,274.13 521.33,274.13 523.22,274.13 525.12,274.13 527.02,274.13 528.92,274.14 530.82,274.14 532.71,274.14 534.61,274.15 536.51,274.15 538.41,274.15 540.31,274.16 542.20,274.16 544.10,274.16 546.00,274.16" fill="none" stroke="#1f77b4" stroke-width="1.8"/>
<line x1="72" y1="39" x2="94" y2="39" stroke="#bbbbbb" stroke-width="2"/>
<text x="99" y="42" font-size="11" fill="#333">phi (t=0)</text>
<line x1="72" y1="54" x2="94" y2="54" stroke="#2ca02c" stroke-width="2"/>
<text x="99" y="57" font-size="11" fill="#333">phi (t=20)</text>
<line x1="72" y1="69" x2="94" y2="69" stroke="#1f77b4" stroke-width="2"/>
<text x="99" y="72" font-size="11" fill="#333">phi (t=40)</text>
</svg>
