<svg xmlns="http://www.w3.org/2000/svg" width="560" height="330" viewBox="0 0 560 330" font-family="Helvetica,Arial,sans-serif">
<rect width="560" height="330" fill="#ffffff"/>
<text x="62" y="19" font-size="14" fill="#222">LBM D3Q19 shear wave: decay -> nu=0.10010</text>
<line x1="62.0" y1="30" x2="62.0" y2="288" stroke="#e5e5e5"/>
<text x="62.0" y="302" font-size="10" fill="#555" text-anchor="middle">0</text>
<line x1="215.7" y1="30" x2="215.7" y2="288" stroke="#e5e5e5"/>
<text x="215.7" y="302" font-size="10" fill="#555" text-anchor="middle">20</text>
<line x1="369.3" y1="30" x2="369.3" y2="288" stroke="#e5e5e5"/>
<text x="369.3" y="302" font-size="10" fill="#555" text-anchor="middle">40</text>
<line x1="523.0" y1="30" x2="523.0" y2="288" stroke="#e5e5e5"/>
<text x="523.0" y="302" font-size="10" fill="#555" text-anchor="middle">60</text>
<line x1="62" y1="251.1" x2="546" y2="251.1" stroke="#e5e5e5"/>
<text x="56" y="254.6" font-size="10" fill="#555" text-anchor="end">-0.04</text>
<line x1="62" y1="205.1" x2="546" y2="205.1" stroke="#e5e5e5"/>
<text x="56" y="208.6" font-size="10" fill="#555" text-anchor="end">-0.02</text>
<line x1="62" y1="159.0" x2="546" y2="159.0" stroke="#e5e5e5"/>
<text x="56" y="162.5" font-size="10" fill="#555" text-anchor="end">0</text>
<line x1="62" y1="112.9" x2="546" y2="112.9" stroke="#e5e5e5"/>
<text x="56" y="116.4" font-size="10" fill="#555" text-anchor="end">0.02</text>
<line x1="62" y1="66.9" x2="546" y2="66.9" stroke="#e5e5e5"/>
<text x="56" y="70.4" font-size="10" fill="#555" text-anchor="end">0.04</text>
<rect x="62" y="30" width="484" height="258" fill="none" stroke="#888"/>
<text x="304" y="322" font-size="11" fill="#333" text-anchor="middle">x</text>
<text x="14" y="159" font-size="11" fill="#333" text-anchor="middle" transform="rotate(-90 14 159)">rho u_y</text>
<polyline points="62.00,159.00 69.68,147.71 77.37,136.53 85.05,125.57 92.73,114.92 100.41,104.71 108.10,95.01 115.78,85.93 123.46,77.56 131.14,69.97 138.83,63.23 146.51,57.42 154.19,52.59 161.87,48.78 169.56,46.03 177.24,44.38 184.92,43.82 192.60,44.38 200.29,46.03 207.97,48.78 215.65,52.59 223.33,57.42 231.02,63.23 238.70,69.97 246.38,77.56 254.06,85.93 261.75,95.01 269.43,104.71 277.11,114.92 284.79,125.57 292.48,136.53 300.16,147.71 307.84,159.00 315.52,170.29 323.21,181.47 330.89,192.43 338.57,203.08 346.25,213.29 353.94,222.99 361.62,232.07 369.30,240.44 376.98,248.03 384.67,254.77 392.35,260.58 400.03,265.41 407.71,269.22 415.40,271.97 423.08,273.62 430.76,274.18 438.44,273.62 446.13,271.97 453.81,269.22 461.49,265.41 469.17,260.58 476.86,254.77 484.54,248.03 492.22,240.44 499.90,232.07 507.59,222.99 515.27,213.29 522.95,203.08 530.63,192.43 538.32,181.47 546.00,170.29" fill="none" stroke="#999999" stroke-width="1.8" stroke-dasharray="6 4"/>
<polyline points="62.00,159.00 69.68,154.70 77.37,150.44 85.05,146.26 92.73,142.20 100.41,138.31 108.10,134.62 115.78,131.16 123.46,127.97 131.14,125.07 138.83,122.51 146.51,120.29 154.19,118.45 161.87,117.00 169.56,115.96 177.24,115.32 184.92,115.11 192.60,115.32 200.29,115.96 207.97,117.00 215.65,118.45 223.33,120.29 231.02,122.51 238.70,125.07 246.38,127.97 254.06,131.16 261.75,134.62 269.43,138.31 277.11,142.20 284.79,146.26 292.48,150.44 300.16,154.70 307.84,159.00 315.52,163.30 323.21,167.56 330.89,171.74 338.57,175.80 346.25,179.69 353.94,183.38 361.62,186.84 369.30,190.03 376.98,192.93 384.67,195.49 392.35,197.71 400.03,199.55 407.71,201.00 415.40,202.04 423.08,202.68 430.76,202.89 438.44,202.68 446.13,202.04 453.81,201.00 461.49,199.55 469.17,197.71 476.86,195.49 484.54,192.93 492.22,190.03 499.90,186.84 507.59,183.38 515.27,179.69 522.95,175.80 530.63,171.74 538.32,167.56 546.00,163.30" fill="none" stroke="#1f77b4" stroke-width="1.8"/>
<line x1="72" y1="39" x2="94" y2="39" stroke="#999999" stroke-width="2" stroke-dasharray="6 4"/>
<text x="99" y="42" font-size="11" fill="#333">rho*u_y (t=0)</text>
<line x1="72" y1="54" x2="94" y2="54" stroke="#1f77b4" stroke-width="2"/>
<text x="99" y="57" font-size="11" fill="#333">rho*u_y (t=1000)</text>
</svg>
