<svg xmlns="http://www.w3.org/2000/svg" width="560" height="330" viewBox="0 0 560 330" font-family="Helvetica,Arial,sans-serif">
<rect width="560" height="330" fill="#ffffff"/>
<text x="62" y="19" font-size="14" fill="#222">Maxwell (collocated): pulse propagation</text>
<line x1="62.0" y1="30" x2="62.0" y2="288" stroke="#e5e5e5"/>
<text x="62.0" y="302" font-size="10" fill="#555" text-anchor="middle">0</text>
<line x1="159.6" y1="30" x2="159.6" y2="288" stroke="#e5e5e5"/>
<text x="159.6" y="302" font-size="10" fill="#555" text-anchor="middle">0.2</text>
<line x1="257.1" y1="30" x2="257.1" y2="288" stroke="#e5e5e5"/>
<text x="257.1" y="302" font-size="10" fill="#555" text-anchor="middle">0.4</text>
<line x1="354.7" y1="30" x2="354.7" y2="288" stroke="#e5e5e5"/>
<text x="354.7" y="302" font-size="10" fill="#555" text-anchor="middle">0.6</text>
<line x1="452.2" y1="30" x2="452.2" y2="288" stroke="#e5e5e5"/>
<text x="452.2" y="302" font-size="10" fill="#555" text-anchor="middle">0.8</text>
<line x1="62" y1="273.6" x2="546" y2="273.6" stroke="#e5e5e5"/>
<text x="56" y="277.1" font-size="10" fill="#555" text-anchor="end">0</text>
<line x1="62" y1="227.6" x2="546" y2="227.6" stroke="#e5e5e5"/>
<text x="56" y="231.1" font-size="10" fill="#555" text-anchor="end">0.2</text>
<line x1="62" y1="181.7" x2="546" y2="181.7" stroke="#e5e5e5"/>
<text x="56" y="185.2" font-size="10" fill="#555" text-anchor="end">0.4</text>
<line x1="62" y1="135.7" x2="546" y2="135.7" stroke="#e5e5e5"/>
<text x="56" y="139.2" font-size="10" fill="#555" text-anchor="end">0.6</text>
<line x1="62" y1="89.8" x2="546" y2="89.8" stroke="#e5e5e5"/>
<text x="56" y="93.3" font-size="10" fill="#555" text-anchor="end">0.8</text>
<line x1="62" y1="43.8" x2="546" y2="43.8" stroke="#e5e5e5"/>
<text x="56" y="47.3" font-size="10" fill="#555" text-anchor="end">1</text>
<rect x="62" y="30" width="484" height="258" fill="none" stroke="#888"/>
<text x="304" y="322" font-size="11" fill="#333" text-anchor="middle">x</text>
<text x="14" y="159" font-size="11" fill="#333" text-anchor="middle" transform="rotate(-90 14 159)">Ey</text>
<polyline points="62.00,273.59 65.81,273.59 69.62,273.59 73.43,273.59 77.24,273.59 81.06,273.59 84.87,273.59 88.68,273.59 92.49,273.59 96.30,273.59 100.11,273.59 103.92,273.59 107.73,273.59 111.54,273.59 115.35,273.59 119.17,273.59 122.98,273.59 126.79,273.59 130.60,273.59 134.41,273.59 138.22,273.59 142.03,273.59 145.84,273.59 149.65,273.59 153.46,273.59 157.28,273.59 161.09,273.59 164.90,273.59 168.71,273.59 172.52,273.59 176.33,273.59 180.14,273.59 183.95,273.59 187.76,273.59 191.57,273.59 195.39,273.59 199.20,273.59 203.01,273.58 206.82,273.58 210.63,273.57 214.44,273.56 218.25,273.53 222.06,273.47 225.87,273.35 229.69,273.14 233.50,272.77 237.31,272.13 241.12,271.07 244.93,269.38 248.74,266.76 252.55,262.84 256.36,257.20 260.17,249.37 263.98,238.90 267.80,225.42 271.61,208.78 275.42,189.06 279.23,166.74 283.04,142.67 286.85,118.12 290.66,94.65 294.47,73.96 298.28,57.74 302.09,47.38 305.91,43.82 309.72,47.38 313.53,57.74 317.34,73.96 321.15,94.65 324.96,118.12 328.77,142.67 332.58,166.74 336.39,189.06 340.20,208.78 344.02,225.42 347.83,238.90 351.64,249.37 355.45,257.20 359.26,262.84 363.07,266.76 366.88,269.38 370.69,271.07 374.50,272.13 378.31,272.77 382.13,273.14 385.94,273.35 389.75,273.47 393.56,273.53 397.37,273.56 401.18,273.57 404.99,273.58 408.80,273.58 412.61,273.59 416.43,273.59 420.24,273.59 424.05,273.59 427.86,273.59 431.67,273.59 435.48,273.59 439.29,273.59 443.10,273.59 446.91,273.59 450.72,273.59 454.54,273.59 458.35,273.59 462.16,273.59 465.97,273.59 469.78,273.59 473.59,273.59 477.40,273.59 481.21,273.59 485.02,273.59 488.83,273.59 492.65,273.59 496.46,273.59 500.27,273.59 504.08,273.59 507.89,273.59 511.70,273.59 515.51,273.59 519.32,273.59 523.13,273.59 526.94,273.59 530.76,273.59 534.57,273.59 538.38,273.59 542.19,273.59 546.00,273.59" fill="none" stroke="#999999" stroke-width="1.8" stroke-dasharray="6 4"/>
<polyline points="62.00,273.59 65.81,273.59 69.62,273.59 73.43,273.59 77.24,273.59 81.06,273.59 84.87,273.59 88.68,273.59 92.49,273.59 96.30,273.59 100.11,273.59 103.92,273.59 107.73,273.59 111.54,273.59 115.35,273.59 119.17,273.59 122.98,273.59 126.79,273.59 130.60,273.59 134.41,273.59 138.22,273.59 142.03,273.59 145.84,273.59 149.65,273.59 153.46,273.59 157.28,273.59 161.09,273.59 164.90,273.59 168.71,273.59 172.52,273.59 176.33,273.59 180.14,273.59 183.95,273.59 187.76,273.59 191.57,273.59 195.39,273.60 199.20,273.61 203.01,273.62 206.82,273.64 210.63,273.67 214.44,273.71 218.25,273.75 222.06,273.81 225.87,273.88 229.69,273.95 233.50,274.02 237.31,274.09 241.12,274.15 244.93,274.18 248.74,274.17 252.55,274.13 256.36,274.03 260.17,273.87 263.98,273.63 267.80,273.30 271.61,272.82 275.42,272.11 279.23,271.03 283.04,269.35 286.85,266.77 290.66,262.90 294.47,257.25 298.28,249.32 302.09,238.60 305.91,224.71 309.72,207.49 313.53,187.10 317.34,164.09 321.15,139.45 324.96,114.58 328.77,91.14 332.58,70.89 336.39,55.50 340.20,46.27 344.02,43.98 347.83,48.78 351.64,60.17 355.45,77.08 359.26,98.05 363.07,121.42 366.88,145.55 370.69,168.99 374.50,190.60 378.31,209.62 382.13,225.69 385.94,238.72 389.75,248.92 393.56,256.62 397.37,262.23 401.18,266.20 404.99,268.91 408.80,270.70 412.61,271.86 416.43,272.58 420.24,273.01 424.05,273.27 427.86,273.41 431.67,273.50 435.48,273.54 439.29,273.56 443.10,273.57 446.91,273.58 450.72,273.58 454.54,273.59 458.35,273.59 462.16,273.59 465.97,273.59 469.78,273.59 473.59,273.59 477.40,273.59 481.21,273.59 485.02,273.59 488.83,273.59 492.65,273.59 496.46,273.59 500.27,273.59 504.08,273.59 507.89,273.59 511.70,273.59 515.51,273.59 519.32,273.59 523.13,273.59 526.94,273.59 530.76,273.59 534.57,273.59 538.38,273.59 542.19,273.59 546.00,273.59" fill="none" stroke="#1f77b4" stroke-width="1.8"/>
<line x1="72" y1="39" x2="94" y2="39" stroke="#999999" stroke-width="2" stroke-dasharray="6 4"/>
<text x="99" y="42" font-size="11" fill="#333">Ey (t=0)</text>
<line x1="72" y1="54" x2="94" y2="54" stroke="#1f77b4" stroke-width="2"/>
<text x="99" y="57" font-size="11" fill="#333">Ey (t=100dt)</text>
</svg>
