<svg xmlns="http://www.w3.org/2000/svg" width="560" height="330" viewBox="0 0 560 330" font-family="Helvetica,Arial,sans-serif">
<rect width="560" height="330" fill="#ffffff"/>
<text x="62" y="19" font-size="14" fill="#222">SBP+SAT heat: walls pinned, mode decays in shape</text>
<line x1="62.0" y1="30" x2="62.0" y2="288" stroke="#e5e5e5"/>
<text x="62.0" y="302" font-size="10" fill="#555" text-anchor="middle">0</text>
<line x1="215.7" y1="30" x2="215.7" y2="288" stroke="#e5e5e5"/>
<text x="215.7" y="302" font-size="10" fill="#555" text-anchor="middle">20</text>
<line x1="369.3" y1="30" x2="369.3" y2="288" stroke="#e5e5e5"/>
<text x="369.3" y="302" font-size="10" fill="#555" text-anchor="middle">40</text>
<line x1="523.0" y1="30" x2="523.0" y2="288" stroke="#e5e5e5"/>
<text x="523.0" y="302" font-size="10" fill="#555" text-anchor="middle">60</text>
<line x1="62" y1="274.2" x2="546" y2="274.2" stroke="#e5e5e5"/>
<text x="56" y="277.7" font-size="10" fill="#555" text-anchor="end">0</text>
<line x1="62" y1="228.1" x2="546" y2="228.1" stroke="#e5e5e5"/>
<text x="56" y="231.6" font-size="10" fill="#555" text-anchor="end">0.2</text>
<line x1="62" y1="182.0" x2="546" y2="182.0" stroke="#e5e5e5"/>
<text x="56" y="185.5" font-size="10" fill="#555" text-anchor="end">0.4</text>
<line x1="62" y1="135.9" x2="546" y2="135.9" stroke="#e5e5e5"/>
<text x="56" y="139.4" font-size="10" fill="#555" text-anchor="end">0.6</text>
<line x1="62" y1="89.8" x2="546" y2="89.8" stroke="#e5e5e5"/>
<text x="56" y="93.3" font-size="10" fill="#555" text-anchor="end">0.8</text>
<line x1="62" y1="43.7" x2="546" y2="43.7" stroke="#e5e5e5"/>
<text x="56" y="47.2" font-size="10" fill="#555" text-anchor="end">1</text>
<rect x="62" y="30" width="484" height="258" fill="none" stroke="#888"/>
<text x="304" y="322" font-size="11" fill="#333" text-anchor="middle">x</text>
<text x="14" y="159" font-size="11" fill="#333" text-anchor="middle" transform="rotate(-90 14 159)">u</text>
<polyline points="62.00,274.18 69.68,262.69 77.37,251.23 85.05,239.83 92.73,228.52 100.41,217.32 108.10,206.26 115.78,195.37 123.46,184.67 131.14,174.20 138.83,163.97 146.51,154.02 154.19,144.37 161.87,135.04 169.56,126.06 177.24,117.45 184.92,109.22 192.60,101.41 200.29,94.02 207.97,87.08 215.65,80.61 223.33,74.62 231.02,69.13 238.70,64.14 246.38,59.68 254.06,55.75 261.75,52.36 269.43,49.53 277.11,47.25 284.79,45.54 292.48,44.39 300.16,43.82 307.84,43.82 315.52,44.39 323.21,45.54 330.89,47.25 338.57,49.53 346.25,52.36 353.94,55.75 361.62,59.68 369.30,64.14 376.98,69.13 384.67,74.62 392.35,80.61 400.03,87.08 407.71,94.02 415.40,101.41 423.08,109.22 430.76,117.45 438.44,126.06 446.13,135.04 453.81,144.37 461.49,154.02 469.17,163.97 476.86,174.20 484.54,184.67 492.22,195.37 499.90,206.26 507.59,217.32 515.27,228.52 522.95,239.83 530.63,251.23 538.32,262.69 546.00,274.18" fill="none" stroke="#999999" stroke-width="1.8" stroke-dasharray="6 4"/>
<polyline points="62.00,274.18 69.68,267.19 77.37,260.22 85.05,253.29 92.73,246.41 100.41,239.60 108.10,232.87 115.78,226.25 123.46,219.74 131.14,213.37 138.83,207.15 146.51,201.10 154.19,195.23 161.87,189.56 169.56,184.09 177.24,178.86 184.92,173.85 192.60,169.10 200.29,164.61 207.97,160.39 215.65,156.45 223.33,152.81 231.02,149.47 238.70,146.44 246.38,143.72 254.06,141.33 261.75,139.27 269.43,137.55 277.11,136.16 284.79,135.12 292.48,134.43 300.16,134.08 307.84,134.08 315.52,134.43 323.21,135.12 330.89,136.16 338.57,137.55 346.25,139.27 353.94,141.33 361.62,143.72 369.30,146.44 376.98,149.47 384.67,152.81 392.35,156.45 400.03,160.39 407.71,164.61 415.40,169.10 423.08,173.85 430.76,178.86 438.44,184.09 446.13,189.56 453.81,195.23 461.49,201.10 469.17,207.15 476.86,213.37 484.54,219.74 492.22,226.25 499.90,232.87 507.59,239.60 515.27,246.41 522.95,253.29 530.63,260.22 538.32,267.19 546.00,274.18" fill="none" stroke="#2ca02c" stroke-width="1.8"/>
<polyline points="62.00,274.18 69.68,269.93 77.37,265.69 85.05,261.47 92.73,257.29 100.41,253.15 108.10,249.05 115.78,245.03 123.46,241.07 131.14,237.20 138.83,233.41 146.51,229.73 154.19,226.16 161.87,222.71 169.56,219.39 177.24,216.20 184.92,213.16 192.60,210.27 200.29,207.54 207.97,204.97 215.65,202.58 223.33,200.36 231.02,198.33 238.70,196.49 246.38,194.84 254.06,193.38 261.75,192.13 269.43,191.08 277.11,190.24 284.79,189.60 292.48,189.18 300.16,188.97 307.84,188.97 315.52,189.18 323.21,189.60 330.89,190.24 338.57,191.08 346.25,192.13 353.94,193.38 361.62,194.84 369.30,196.49 376.98,198.33 384.67,200.36 392.35,202.58 400.03,204.97 407.71,207.54 415.40,210.27 423.08,213.16 430.76,216.20 438.44,219.39 446.13,222.71 453.81,226.16 461.49,229.73 469.17,233.41 476.86,237.20 484.54,241.07 492.22,245.03 499.90,249.05 507.59,253.15 515.27,257.29 522.95,261.47 530.63,265.69 538.32,269.93 546.00,274.18" fill="none" stroke="#1f77b4" stroke-width="1.8"/>
<line x1="72" y1="39" x2="94" y2="39" stroke="#999999" stroke-width="2" stroke-dasharray="6 4"/>
<text x="99" y="42" font-size="11" fill="#333">u (t=0)</text>
<line x1="72" y1="54" x2="94" y2="54" stroke="#2ca02c" stroke-width="2"/>
<text x="99" y="57" font-size="11" fill="#333">u (t=200)</text>
<line x1="72" y1="69" x2="94" y2="69" stroke="#1f77b4" stroke-width="2"/>
<text x="99" y="72" font-size="11" fill="#333">u (t=400)</text>
</svg>
