<svg xmlns="http://www.w3.org/2000/svg" width="560" height="330" viewBox="0 0 560 330" font-family="Helvetica,Arial,sans-serif">
<rect width="560" height="330" fill="#ffffff"/>
<text x="62" y="19" font-size="14" fill="#222">SBP acoustic: pressure-release walls, one period</text>
<line x1="62.0" y1="30" x2="62.0" y2="288" stroke="#e5e5e5"/>
<text x="62.0" y="302" font-size="10" fill="#555" text-anchor="middle">0</text>
<line x1="215.7" y1="30" x2="215.7" y2="288" stroke="#e5e5e5"/>
<text x="215.7" y="302" font-size="10" fill="#555" text-anchor="middle">20</text>
<line x1="369.3" y1="30" x2="369.3" y2="288" stroke="#e5e5e5"/>
<text x="369.3" y="302" font-size="10" fill="#555" text-anchor="middle">40</text>
<line x1="523.0" y1="30" x2="523.0" y2="288" stroke="#e5e5e5"/>
<text x="523.0" y="302" font-size="10" fill="#555" text-anchor="middle">60</text>
<line x1="62" y1="273.9" x2="546" y2="273.9" stroke="#e5e5e5"/>
<text x="56" y="277.4" font-size="10" fill="#555" text-anchor="end">-1</text>
<line x1="62" y1="216.5" x2="546" y2="216.5" stroke="#e5e5e5"/>
<text x="56" y="220.0" font-size="10" fill="#555" text-anchor="end">-0.5</text>
<line x1="62" y1="159.1" x2="546" y2="159.1" stroke="#e5e5e5"/>
<text x="56" y="162.6" font-size="10" fill="#555" text-anchor="end">0</text>
<line x1="62" y1="101.8" x2="546" y2="101.8" stroke="#e5e5e5"/>
<text x="56" y="105.3" font-size="10" fill="#555" text-anchor="end">0.5</text>
<line x1="62" y1="44.4" x2="546" y2="44.4" stroke="#e5e5e5"/>
<text x="56" y="47.9" font-size="10" fill="#555" text-anchor="end">1</text>
<rect x="62" y="30" width="484" height="258" fill="none" stroke="#888"/>
<text x="304" y="322" font-size="11" fill="#333" text-anchor="middle">x</text>
<text x="14" y="159" font-size="11" fill="#333" text-anchor="middle" transform="rotate(-90 14 159)">p, v</text>
<polyline points="62.00,159.15 69.68,153.42 77.37,147.72 85.05,142.04 92.73,136.40 100.41,130.82 108.10,125.31 115.78,119.89 123.46,114.56 131.14,109.34 138.83,104.25 146.51,99.29 154.19,94.49 161.87,89.84 169.56,85.36 177.24,81.07 184.92,76.98 192.60,73.08 200.29,69.40 207.97,65.95 215.65,62.72 223.33,59.74 231.02,57.00 238.70,54.52 246.38,52.30 254.06,50.34 261.75,48.65 269.43,47.24 277.11,46.11 284.79,45.25 292.48,44.68 300.16,44.40 307.84,44.40 315.52,44.68 323.21,45.25 330.89,46.11 338.57,47.24 346.25,48.65 353.94,50.34 361.62,52.30 369.30,54.52 376.98,57.00 384.67,59.74 392.35,62.72 400.03,65.95 407.71,69.40 415.40,73.08 423.08,76.98 430.76,81.07 438.44,85.36 446.13,89.84 453.81,94.49 461.49,99.29 469.17,104.25 476.86,109.34 484.54,114.56 492.22,119.89 499.90,125.31 507.59,130.82 515.27,136.40 522.95,142.04 530.63,147.72 538.32,153.42 546.00,159.15" fill="none" stroke="#999999" stroke-width="1.8" stroke-dasharray="6 4"/>
<polyline points="62.00,274.04 69.68,273.75 77.37,273.18 85.05,272.33 92.73,271.19 100.41,269.78 108.10,268.09 115.78,266.13 123.46,263.90 131.14,261.41 138.83,258.67 146.51,255.69 154.19,252.46 161.87,249.00 169.56,245.31 177.24,241.42 184.92,237.31 192.60,233.02 200.29,228.54 207.97,223.88 215.65,219.07 223.33,214.11 231.02,209.01 238.70,203.78 246.38,198.45 254.06,193.02 261.75,187.51 269.43,181.92 277.11,176.27 284.79,170.58 292.48,164.87 300.16,159.15 307.84,153.42 315.52,147.71 323.21,142.02 330.89,136.37 338.57,130.78 346.25,125.27 353.94,119.84 361.62,114.51 369.30,109.28 376.98,104.18 384.67,99.22 392.35,94.41 400.03,89.75 407.71,85.27 415.40,80.98 423.08,76.87 430.76,72.98 438.44,69.29 446.13,65.83 453.81,62.60 461.49,59.62 469.17,56.88 476.86,54.39 484.54,52.16 492.22,50.20 499.90,48.51 507.59,47.10 515.27,45.96 522.95,45.11 530.63,44.54 538.32,44.25" fill="none" stroke="#2ca02c" stroke-width="1.8" stroke-dasharray="6 4"/>
<polyline points="62.00,159.15 69.68,164.88 77.37,170.60 85.05,176.29 92.73,181.94 100.41,187.54 108.10,193.06 115.78,198.50 123.46,203.84 131.14,209.07 138.83,214.18 146.51,219.15 154.19,223.97 161.87,228.63 169.56,233.11 177.24,237.41 184.92,241.52 192.60,245.42 200.29,249.11 207.97,252.57 215.65,255.81 223.33,258.80 231.02,261.54 238.70,264.03 246.38,266.26 254.06,268.22 261.75,269.91 269.43,271.33 277.11,272.47 284.79,273.32 292.48,273.89 300.16,274.18 307.84,274.18 315.52,273.89 323.21,273.32 330.89,272.47 338.57,271.33 346.25,269.91 353.94,268.22 361.62,266.26 369.30,264.03 376.98,261.54 384.67,258.80 392.35,255.81 400.03,252.57 407.71,249.11 415.40,245.42 423.08,241.52 430.76,237.41 438.44,233.11 446.13,228.63 453.81,223.97 461.49,219.15 469.17,214.18 476.86,209.07 484.54,203.84 492.22,198.50 499.90,193.06 507.59,187.54 515.27,181.94 522.95,176.29 530.63,170.60 538.32,164.88 546.00,159.15" fill="none" stroke="#d62728" stroke-width="1.8"/>
<polyline points="62.00,159.15 69.68,153.40 77.37,147.67 85.05,141.96 92.73,136.29 100.41,130.68 108.10,125.14 115.78,119.69 123.46,114.33 131.14,109.09 138.83,103.98 146.51,99.00 154.19,94.17 161.87,89.50 169.56,85.00 177.24,80.68 184.92,76.56 192.60,72.65 200.29,68.96 207.97,65.49 215.65,62.24 223.33,59.24 231.02,56.49 238.70,54.00 246.38,51.77 254.06,49.80 261.75,48.10 269.43,46.68 277.11,45.54 284.79,44.69 292.48,44.11 300.16,43.82 307.84,43.82 315.52,44.11 323.21,44.69 330.89,45.54 338.57,46.68 346.25,48.10 353.94,49.80 361.62,51.77 369.30,54.00 376.98,56.49 384.67,59.24 392.35,62.24 400.03,65.49 407.71,68.96 415.40,72.65 423.08,76.56 430.76,80.68 438.44,85.00 446.13,89.50 453.81,94.17 461.49,99.00 469.17,103.98 476.86,109.09 484.54,114.33 492.22,119.69 499.90,125.14 507.59,130.68 515.27,136.29 522.95,141.96 530.63,147.67 538.32,153.40 546.00,159.15" fill="none" stroke="#1f77b4" stroke-width="1.8"/>
<line x1="72" y1="39" x2="94" y2="39" stroke="#999999" stroke-width="2" stroke-dasharray="6 4"/>
<text x="99" y="42" font-size="11" fill="#333">p (t=0)</text>
<line x1="72" y1="54" x2="94" y2="54" stroke="#2ca02c" stroke-width="2" stroke-dasharray="6 4"/>
<text x="99" y="57" font-size="11" fill="#333">v (T/4)</text>
<line x1="72" y1="69" x2="94" y2="69" stroke="#d62728" stroke-width="2"/>
<text x="99" y="72" font-size="11" fill="#333">p (T/2)</text>
<line x1="72" y1="84" x2="94" y2="84" stroke="#1f77b4" stroke-width="2"/>
<text x="99" y="87" font-size="11" fill="#333">p (T)</text>
</svg>
