<svg xmlns="http://www.w3.org/2000/svg" width="560" height="330" viewBox="0 0 560 330" font-family="Helvetica,Arial,sans-serif">
<rect width="560" height="330" fill="#ffffff"/>
<text x="62" y="19" font-size="14" fill="#222">Sod shock tube at t=1.2 (right diaphragm)</text>
<line x1="62.0" y1="30" x2="62.0" y2="288" stroke="#e5e5e5"/>
<text x="62.0" y="302" font-size="10" fill="#555" text-anchor="middle">0</text>
<line x1="213.5" y1="30" x2="213.5" y2="288" stroke="#e5e5e5"/>
<text x="213.5" y="302" font-size="10" fill="#555" text-anchor="middle">5</text>
<line x1="365.1" y1="30" x2="365.1" y2="288" stroke="#e5e5e5"/>
<text x="365.1" y="302" font-size="10" fill="#555" text-anchor="middle">10</text>
<line x1="516.6" y1="30" x2="516.6" y2="288" stroke="#e5e5e5"/>
<text x="516.6" y="302" font-size="10" fill="#555" text-anchor="middle">15</text>
<line x1="62" y1="280.8" x2="546" y2="280.8" stroke="#e5e5e5"/>
<text x="56" y="284.3" font-size="10" fill="#555" text-anchor="end">-1</text>
<line x1="62" y1="221.6" x2="546" y2="221.6" stroke="#e5e5e5"/>
<text x="56" y="225.1" font-size="10" fill="#555" text-anchor="end">-0.5</text>
<line x1="62" y1="162.3" x2="546" y2="162.3" stroke="#e5e5e5"/>
<text x="56" y="165.8" font-size="10" fill="#555" text-anchor="end">0</text>
<line x1="62" y1="103.1" x2="546" y2="103.1" stroke="#e5e5e5"/>
<text x="56" y="106.6" font-size="10" fill="#555" text-anchor="end">0.5</text>
<line x1="62" y1="43.8" x2="546" y2="43.8" stroke="#e5e5e5"/>
<text x="56" y="47.3" font-size="10" fill="#555" text-anchor="end">1</text>
<rect x="62" y="30" width="484" height="258" fill="none" stroke="#888"/>
<text x="304" y="322" font-size="11" fill="#333" text-anchor="middle">x</text>
<text x="14" y="159" font-size="11" fill="#333" text-anchor="middle" transform="rotate(-90 14 159)"></text>
<polyline points="62.00,147.52 62.95,147.52 63.89,147.52 64.84,147.52 65.79,147.52 66.74,147.52 67.68,147.52 68.63,147.52 69.58,147.52 70.52,147.52 71.47,147.52 72.42,147.52 73.37,147.52 74.31,147.52 75.26,147.52 76.21,147.52 77.15,147.52 78.10,147.52 79.05,147.52 80.00,147.52 80.94,147.52 81.89,147.52 82.84,147.52 83.78,147.52 84.73,147.52 85.68,147.52 86.63,147.52 87.57,147.52 88.52,147.52 89.47,147.52 90.41,147.52 91.36,147.52 92.31,147.52 93.26,147.52 94.20,147.52 95.15,147.52 96.10,147.52 97.05,147.52 97.99,147.52 98.94,147.52 99.89,147.52 100.83,147.52 101.78,147.52 102.73,147.52 103.68,147.52 104.62,147.52 105.57,147.52 106.52,147.52 107.46,147.52 108.41,147.52 109.36,147.52 110.31,147.52 111.25,147.51 112.20,147.51 113.15,147.51 114.09,147.49 115.04,147.43 115.99,147.26 116.94,146.77 117.88,145.47 118.83,142.72 119.78,138.46 120.72,134.02 121.67,131.23 122.62,130.46 123.57,130.62 124.51,130.79 125.46,130.80 126.41,130.77 127.35,130.76 128.30,130.75 129.25,130.74 130.20,130.72 131.14,130.70 132.09,130.66 133.04,130.60 133.98,130.53 134.93,130.44 135.88,130.31 136.83,130.16 137.77,129.96 138.72,129.71 139.67,129.41 140.61,129.05 141.56,128.63 142.51,128.14 143.46,127.59 144.40,126.98 145.35,126.30 146.30,125.57 147.24,124.79 148.19,123.98 149.14,123.14 150.09,122.30 151.03,121.45 151.98,120.61 152.93,119.80 153.87,119.02 154.82,118.28 155.77,117.59 156.72,116.96 157.66,116.38 158.61,115.85 159.56,115.38 160.50,114.96 161.45,114.59 162.40,114.27 163.35,113.98 164.29,113.72 165.24,113.49 166.19,113.28 167.14,113.08 168.08,112.88 169.03,112.69 169.98,112.49 170.92,112.28 171.87,112.05 172.82,111.80 173.77,111.52 174.71,111.21 175.66,110.86 176.61,110.47 177.55,110.04 178.50,109.57 179.45,109.06 180.40,108.50 181.34,107.90 182.29,107.25 183.24,106.57 184.18,105.84 185.13,105.08 186.08,104.27 187.03,103.43 187.97,102.55 188.92,101.65 189.87,100.70 190.81,99.73 191.76,98.74 192.71,97.71 193.66,96.66 194.60,95.58 195.55,94.48 196.50,93.35 197.44,92.21 198.39,91.04 199.34,89.86 200.29,88.65 201.23,87.43 202.18,86.19 203.13,84.93 204.07,83.66 205.02,82.38 205.97,81.08 206.92,79.77 207.86,78.45 208.81,77.13 209.76,75.79 210.70,74.44 211.65,73.09 212.60,71.74 213.55,70.38 214.49,69.03 215.44,67.67 216.39,66.32 217.33,64.98 218.28,63.65 219.23,62.33 220.18,61.03 221.12,59.74 222.07,58.48 223.02,57.25 223.96,56.05 224.91,54.89 225.86,53.78 226.81,52.70 227.75,51.69 228.70,50.72 229.65,49.82 230.59,48.99 231.54,48.22 232.49,47.52 233.44,46.90 234.38,46.34 235.33,45.86 236.28,45.45 237.23,45.09 238.17,44.80 239.12,44.57 240.07,44.38 241.01,44.23 241.96,44.11 242.91,44.03 243.86,43.96 244.80,43.92 245.75,43.88 246.70,43.86 247.64,43.85 248.59,43.84 249.54,43.83 250.49,43.83 251.43,43.82 252.38,43.82 253.33,43.82 254.27,43.82 255.22,43.82 256.17,43.82 257.12,43.82 258.06,43.82 259.01,43.82 259.96,43.82 260.90,43.82 261.85,43.82 262.80,43.82 263.75,43.82 264.69,43.82 265.64,43.82 266.59,43.82 267.53,43.82 268.48,43.82 269.43,43.82 270.38,43.82 271.32,43.82 272.27,43.82 273.22,43.82 274.16,43.82 275.11,43.82 276.06,43.82 277.01,43.82 277.95,43.82 278.90,43.82 279.85,43.82 280.79,43.82 281.74,43.82 282.69,43.82 283.64,43.82 284.58,43.82 285.53,43.82 286.48,43.82 287.42,43.82 288.37,43.82 289.32,43.82 290.27,43.82 291.21,43.82 292.16,43.82 293.11,43.82 294.05,43.82 295.00,43.82 295.95,43.82 296.90,43.82 297.84,43.82 298.79,43.82 299.74,43.82 300.68,43.82 301.63,43.82 302.58,43.82 303.53,43.82 304.47,43.82 305.42,43.82 306.37,43.82 307.32,43.82 308.26,43.82 309.21,43.82 310.16,43.82 311.10,43.82 312.05,43.82 313.00,43.82 313.95,43.82 314.89,43.82 315.84,43.82 316.79,43.82 317.73,43.82 318.68,43.82 319.63,43.82 320.58,43.82 321.52,43.82 322.47,43.82 323.42,43.82 324.36,43.82 325.31,43.82 326.26,43.82 327.21,43.82 328.15,43.82 329.10,43.82 330.05,43.82 330.99,43.82 331.94,43.82 332.89,43.82 333.84,43.82 334.78,43.82 335.73,43.82 336.68,43.82 337.62,43.82 338.57,43.82 339.52,43.82 340.47,43.82 341.41,43.82 342.36,43.82 343.31,43.82 344.25,43.82 345.20,43.82 346.15,43.82 347.10,43.82 348.04,43.82 348.99,43.82 349.94,43.82 350.88,43.82 351.83,43.82 352.78,43.82 353.73,43.82 354.67,43.82 355.62,43.82 356.57,43.82 357.51,43.82 358.46,43.83 359.41,43.83 360.36,43.84 361.30,43.85 362.25,43.86 363.20,43.88 364.14,43.92 365.09,43.96 366.04,44.03 366.99,44.11 367.93,44.23 368.88,44.38 369.83,44.57 370.77,44.80 371.72,45.09 372.67,45.45 373.62,45.86 374.56,46.34 375.51,46.90 376.46,47.52 377.41,48.22 378.35,48.99 379.30,49.82 380.25,50.72 381.19,51.69 382.14,52.70 383.09,53.78 384.04,54.89 384.98,56.05 385.93,57.25 386.88,58.48 387.82,59.74 388.77,61.03 389.72,62.33 390.67,63.65 391.61,64.98 392.56,66.32 393.51,67.67 394.45,69.03 395.40,70.38 396.35,71.74 397.30,73.09 398.24,74.44 399.19,75.79 400.14,77.13 401.08,78.45 402.03,79.77 402.98,81.08 403.93,82.38 404.87,83.66 405.82,84.93 406.77,86.19 407.71,87.43 408.66,88.65 409.61,89.86 410.56,91.04 411.50,92.21 412.45,93.35 413.40,94.48 414.34,95.58 415.29,96.66 416.24,97.71 417.19,98.74 418.13,99.73 419.08,100.70 420.03,101.65 420.97,102.55 421.92,103.43 422.87,104.27 423.82,105.08 424.76,105.84 425.71,106.57 426.66,107.25 427.60,107.90 428.55,108.50 429.50,109.06 430.45,109.57 431.39,110.04 432.34,110.47 433.29,110.86 434.23,111.21 435.18,111.52 436.13,111.80 437.08,112.05 438.02,112.28 438.97,112.49 439.92,112.69 440.86,112.88 441.81,113.08 442.76,113.28 443.71,113.49 444.65,113.72 445.60,113.98 446.55,114.27 447.50,114.59 448.44,114.96 449.39,115.38 450.34,115.85 451.28,116.38 452.23,116.96 453.18,117.59 454.13,118.28 455.07,119.02 456.02,119.80 456.97,120.61 457.91,121.45 458.86,122.30 459.81,123.14 460.76,123.98 461.70,124.79 462.65,125.57 463.60,126.30 464.54,126.98 465.49,127.59 466.44,128.14 467.39,128.63 468.33,129.05 469.28,129.41 470.23,129.71 471.17,129.96 472.12,130.16 473.07,130.31 474.02,130.44 474.96,130.53 475.91,130.60 476.86,130.66 477.80,130.70 478.75,130.72 479.70,130.74 480.65,130.75 481.59,130.76 482.54,130.77 483.49,130.80 484.43,130.79 485.38,130.62 486.33,130.46 487.28,131.23 488.22,134.02 489.17,138.46 490.12,142.72 491.06,145.47 492.01,146.77 492.96,147.26 493.91,147.43 494.85,147.49 495.80,147.51 496.75,147.51 497.69,147.51 498.64,147.52 499.59,147.52 500.54,147.52 501.48,147.52 502.43,147.52 503.38,147.52 504.32,147.52 505.27,147.52 506.22,147.52 507.17,147.52 508.11,147.52 509.06,147.52 510.01,147.52 510.95,147.52 511.90,147.52 512.85,147.52 513.80,147.52 514.74,147.52 515.69,147.52 516.64,147.52 517.59,147.52 518.53,147.52 519.48,147.52 520.43,147.52 521.37,147.52 522.32,147.52 523.27,147.52 524.22,147.52 525.16,147.52 526.11,147.52 527.06,147.52 528.00,147.52 528.95,147.52 529.90,147.52 530.85,147.52 531.79,147.52 532.74,147.52 533.69,147.52 534.63,147.52 535.58,147.52 536.53,147.52 537.48,147.52 538.42,147.52 539.37,147.52 540.32,147.52 541.26,147.52 542.21,147.52 543.16,147.52 544.11,147.52 545.05,147.52 546.00,147.52" fill="none" stroke="#1f77b4" stroke-width="1.8"/>
<polyline points="62.00,43.82 62.95,43.82 63.89,43.82 64.84,43.82 65.79,43.82 66.74,43.82 67.68,43.82 68.63,43.82 69.58,43.82 70.52,43.82 71.47,43.82 72.42,43.82 73.37,43.82 74.31,43.82 75.26,43.82 76.21,43.82 77.15,43.82 78.10,43.82 79.05,43.82 80.00,43.82 80.94,43.82 81.89,43.82 82.84,43.82 83.78,43.82 84.73,43.82 85.68,43.82 86.63,43.82 87.57,43.82 88.52,43.82 89.47,43.82 90.41,43.82 91.36,43.82 92.31,43.82 93.26,43.82 94.20,43.82 95.15,43.82 96.10,43.82 97.05,43.82 97.99,43.82 98.94,43.82 99.89,43.82 100.83,43.82 101.78,43.82 102.73,43.82 103.68,43.82 104.62,43.82 105.57,43.82 106.52,43.82 107.46,43.82 108.41,43.82 109.36,43.82 110.31,43.82 111.25,43.82 112.20,43.82 113.15,43.82 114.09,43.82 115.04,43.82 115.99,43.82 116.94,43.82 117.88,43.82 118.83,43.82 119.78,43.82 120.72,43.82 121.67,43.82 122.62,43.82 123.57,43.82 124.51,43.82 125.46,43.82 126.41,43.82 127.35,43.82 128.30,43.82 129.25,43.82 130.20,43.82 131.14,43.82 132.09,43.82 133.04,43.82 133.98,43.82 134.93,43.82 135.88,43.82 136.83,43.82 137.77,43.82 138.72,43.82 139.67,43.82 140.61,43.82 141.56,43.82 142.51,43.82 143.46,43.82 144.40,43.82 145.35,43.82 146.30,43.82 147.24,43.82 148.19,43.82 149.14,43.82 150.09,43.82 151.03,43.82 151.98,43.82 152.93,43.82 153.87,43.82 154.82,43.82 155.77,43.82 156.72,43.82 157.66,43.82 158.61,43.82 159.56,43.82 160.50,43.82 161.45,43.82 162.40,43.82 163.35,43.82 164.29,43.82 165.24,43.82 166.19,43.82 167.14,43.82 168.08,43.82 169.03,43.82 169.98,43.82 170.92,43.82 171.87,43.82 172.82,43.82 173.77,43.82 174.71,43.82 175.66,43.82 176.61,43.82 177.55,43.82 178.50,43.82 179.45,43.82 180.40,43.82 181.34,43.82 182.29,43.82 183.24,43.82 184.18,43.82 185.13,43.82 186.08,43.82 187.03,43.82 187.97,43.82 188.92,43.82 189.87,43.82 190.81,43.82 191.76,43.82 192.71,43.82 193.66,43.82 194.60,43.82 195.55,43.82 196.50,43.82 197.44,43.82 198.39,43.82 199.34,43.82 200.29,43.82 201.23,43.82 202.18,43.82 203.13,43.82 204.07,43.82 205.02,43.82 205.97,43.82 206.92,43.82 207.86,43.82 208.81,43.82 209.76,43.82 210.70,43.82 211.65,43.82 212.60,43.82 213.55,43.82 214.49,43.82 215.44,43.82 216.39,43.82 217.33,43.82 218.28,43.82 219.23,43.82 220.18,43.82 221.12,43.82 222.07,43.82 223.02,43.82 223.96,43.82 224.91,43.82 225.86,43.82 226.81,43.82 227.75,43.82 228.70,43.82 229.65,43.82 230.59,43.82 231.54,43.82 232.49,43.82 233.44,43.82 234.38,43.82 235.33,43.82 236.28,43.82 237.23,43.82 238.17,43.82 239.12,43.82 240.07,43.82 241.01,43.82 241.96,43.82 242.91,43.82 243.86,43.82 244.80,43.82 245.75,43.82 246.70,43.82 247.64,43.82 248.59,43.82 249.54,43.82 250.49,43.82 251.43,43.82 252.38,43.82 253.33,43.82 254.27,43.82 255.22,43.82 256.17,43.82 257.12,43.82 258.06,43.82 259.01,43.82 259.96,43.82 260.90,43.82 261.85,43.82 262.80,43.82 263.75,43.82 264.69,43.82 265.64,43.82 266.59,43.82 267.53,43.82 268.48,43.82 269.43,43.82 270.38,43.82 271.32,43.82 272.27,43.82 273.22,43.82 274.16,43.82 275.11,43.82 276.06,43.82 277.01,43.82 277.95,43.82 278.90,43.82 279.85,43.82 280.79,43.82 281.74,43.82 282.69,43.82 283.64,43.82 284.58,43.82 285.53,43.82 286.48,43.82 287.42,43.82 288.37,43.82 289.32,43.82 290.27,43.82 291.21,43.82 292.16,43.82 293.11,43.82 294.05,43.82 295.00,43.82 295.95,43.82 296.90,43.82 297.84,43.82 298.79,43.82 299.74,43.82 300.68,43.82 301.63,43.82 302.58,43.82 303.53,43.82 304.47,43.82 305.42,43.82 306.37,43.82 307.32,43.82 308.26,43.82 309.21,43.82 310.16,43.82 311.10,43.82 312.05,43.82 313.00,43.82 313.95,43.82 314.89,43.82 315.84,43.82 316.79,43.82 317.73,43.82 318.68,43.82 319.63,43.82 320.58,43.82 321.52,43.82 322.47,43.82 323.42,43.82 324.36,43.82 325.31,43.82 326.26,43.82 327.21,43.82 328.15,43.82 329.10,43.82 330.05,43.82 330.99,43.82 331.94,43.82 332.89,43.82 333.84,43.82 334.78,43.82 335.73,43.82 336.68,43.82 337.62,43.82 338.57,43.82 339.52,43.82 340.47,43.82 341.41,43.82 342.36,43.82 343.31,43.82 344.25,43.82 345.20,43.82 346.15,43.82 347.10,43.82 348.04,43.82 348.99,43.82 349.94,43.82 350.88,43.82 351.83,43.82 352.78,43.82 353.73,43.82 354.67,43.82 355.62,43.82 356.57,43.82 357.51,43.82 358.46,43.82 359.41,43.82 360.36,43.82 361.30,43.82 362.25,43.82 363.20,43.82 364.14,43.82 365.09,43.82 366.04,43.82 366.99,43.82 367.93,43.82 368.88,43.82 369.83,43.82 370.77,43.82 371.72,43.82 372.67,43.82 373.62,43.82 374.56,43.82 375.51,43.82 376.46,43.82 377.41,43.82 378.35,43.82 379.30,43.82 380.25,43.82 381.19,43.82 382.14,43.82 383.09,44.77 384.04,46.91 384.98,49.02 385.93,51.10 386.88,53.15 387.82,55.17 388.77,57.16 389.72,59.13 390.67,61.06 391.61,62.96 392.56,64.83 393.51,66.68 394.45,68.49 395.40,70.28 396.35,72.05 397.30,73.78 398.24,75.49 399.19,77.17 400.14,78.83 401.08,80.46 402.03,82.06 402.98,83.64 403.93,85.19 404.87,86.72 405.82,88.23 406.77,89.71 407.71,91.17 408.66,92.60 409.61,94.01 410.56,95.40 411.50,96.76 412.45,98.11 413.40,99.43 414.34,100.72 415.29,102.00 416.24,103.26 417.19,104.49 418.13,105.71 419.08,106.90 420.03,108.07 420.97,109.23 421.92,110.36 422.87,111.47 423.82,111.81 424.76,111.81 425.71,111.81 426.66,111.81 427.60,111.81 428.55,111.81 429.50,111.81 430.45,111.81 431.39,111.81 432.34,111.81 433.29,111.81 434.23,111.81 435.18,111.81 436.13,111.81 437.08,111.81 438.02,111.81 438.97,111.81 439.92,111.81 440.86,111.81 441.81,111.81 442.76,111.81 443.71,111.81 444.65,111.81 445.60,111.81 446.55,111.81 447.50,111.81 448.44,111.81 449.39,111.81 450.34,111.81 451.28,111.81 452.23,111.81 453.18,111.81 454.13,111.81 455.07,111.81 456.02,111.81 456.97,111.81 457.91,111.81 458.86,111.81 459.81,130.86 460.76,130.86 461.70,130.86 462.65,130.86 463.60,130.86 464.54,130.86 465.49,130.86 466.44,130.86 467.39,130.86 468.33,130.86 469.28,130.86 470.23,130.86 471.17,130.86 472.12,130.86 473.07,130.86 474.02,130.86 474.96,130.86 475.91,130.86 476.86,130.86 477.80,130.86 478.75,130.86 479.70,130.86 480.65,130.86 481.59,130.86 482.54,130.86 483.49,130.86 484.43,130.86 485.38,130.86 486.33,130.86 487.28,130.86 488.22,130.86 489.17,130.86 490.12,147.52 491.06,147.52 492.01,147.52 492.96,147.52 493.91,147.52 494.85,147.52 495.80,147.52 496.75,147.52 497.69,147.52 498.64,147.52 499.59,147.52 500.54,147.52 501.48,147.52 502.43,147.52 503.38,147.52 504.32,147.52 505.27,147.52 506.22,147.52 507.17,147.52 508.11,147.52 509.06,147.52 510.01,147.52 510.95,147.52 511.90,147.52 512.85,147.52 513.80,147.52 514.74,147.52 515.69,147.52 516.64,147.52 517.59,147.52 518.53,147.52 519.48,147.52 520.43,147.52 521.37,147.52 522.32,147.52 523.27,147.52 524.22,147.52 525.16,147.52 526.11,147.52 527.06,147.52 528.00,147.52 528.95,147.52 529.90,147.52 530.85,147.52 531.79,147.52 532.74,147.52 533.69,147.52 534.63,147.52 535.58,147.52 536.53,147.52 537.48,147.52 538.42,147.52 539.37,147.52 540.32,147.52 541.26,147.52 542.21,147.52 543.16,147.52 544.11,147.52 545.05,147.52 546.00,147.52" fill="none" stroke="#d62728" stroke-width="1.8" stroke-dasharray="6 4"/>
<polyline points="62.00,150.48 62.95,150.48 63.89,150.48 64.84,150.48 65.79,150.48 66.74,150.48 67.68,150.48 68.63,150.48 69.58,150.48 70.52,150.48 71.47,150.48 72.42,150.48 73.37,150.48 74.31,150.48 75.26,150.48 76.21,150.48 77.15,150.48 78.10,150.48 79.05,150.48 80.00,150.48 80.94,150.48 81.89,150.48 82.84,150.48 83.78,150.48 84.73,150.48 85.68,150.48 86.63,150.48 87.57,150.48 88.52,150.48 89.47,150.48 90.41,150.48 91.36,150.48 92.31,150.48 93.26,150.48 94.20,150.48 95.15,150.48 96.10,150.48 97.05,150.48 97.99,150.48 98.94,150.48 99.89,150.48 100.83,150.48 101.78,150.48 102.73,150.48 103.68,150.48 104.62,150.48 105.57,150.48 106.52,150.48 107.46,150.48 108.41,150.48 109.36,150.48 110.31,150.48 111.25,150.48 112.20,150.48 113.15,150.47 114.09,150.45 115.04,150.39 115.99,150.19 116.94,149.60 117.88,147.96 118.83,144.21 119.78,138.03 120.72,131.32 121.67,126.98 122.62,125.76 123.57,126.02 124.51,126.30 125.46,126.32 126.41,126.29 127.35,126.28 128.30,126.29 129.25,126.30 130.20,126.31 131.14,126.31 132.09,126.32 133.04,126.33 133.98,126.33 134.93,126.33 135.88,126.34 136.83,126.34 137.77,126.35 138.72,126.35 139.67,126.35 140.61,126.36 141.56,126.36 142.51,126.36 143.46,126.36 144.40,126.36 145.35,126.37 146.30,126.37 147.24,126.37 148.19,126.37 149.14,126.37 150.09,126.37 151.03,126.37 151.98,126.37 152.93,126.37 153.87,126.37 154.82,126.37 155.77,126.37 156.72,126.37 157.66,126.37 158.61,126.37 159.56,126.36 160.50,126.36 161.45,126.35 162.40,126.34 163.35,126.32 164.29,126.30 165.24,126.27 166.19,126.23 167.14,126.18 168.08,126.12 169.03,126.03 169.98,125.93 170.92,125.80 171.87,125.64 172.82,125.44 173.77,125.21 174.71,124.95 175.66,124.63 176.61,124.28 177.55,123.88 178.50,123.43 179.45,122.93 180.40,122.38 181.34,121.78 182.29,121.14 183.24,120.45 184.18,119.71 185.13,118.92 186.08,118.09 187.03,117.22 187.97,116.30 188.92,115.34 189.87,114.34 190.81,113.31 191.76,112.23 192.71,111.12 193.66,109.98 194.60,108.79 195.55,107.58 196.50,106.33 197.44,105.04 198.39,103.73 199.34,102.39 200.29,101.01 201.23,99.60 202.18,98.17 203.13,96.71 204.07,95.22 205.02,93.70 205.97,92.16 206.92,90.59 207.86,89.00 208.81,87.39 209.76,85.76 210.70,84.11 211.65,82.44 212.60,80.76 213.55,79.06 214.49,77.36 215.44,75.64 216.39,73.92 217.33,72.20 218.28,70.49 219.23,68.78 220.18,67.08 221.12,65.40 222.07,63.74 223.02,62.11 223.96,60.52 224.91,58.97 225.86,57.47 226.81,56.03 227.75,54.65 228.70,53.34 229.65,52.12 230.59,50.97 231.54,49.92 232.49,48.96 233.44,48.10 234.38,47.33 235.33,46.66 236.28,46.09 237.23,45.60 238.17,45.19 239.12,44.86 240.07,44.60 241.01,44.39 241.96,44.23 242.91,44.11 243.86,44.02 244.80,43.96 245.75,43.91 246.70,43.88 247.64,43.86 248.59,43.84 249.54,43.84 250.49,43.83 251.43,43.83 252.38,43.82 253.33,43.82 254.27,43.82 255.22,43.82 256.17,43.82 257.12,43.82 258.06,43.82 259.01,43.82 259.96,43.82 260.90,43.82 261.85,43.82 262.80,43.82 263.75,43.82 264.69,43.82 265.64,43.82 266.59,43.82 267.53,43.82 268.48,43.82 269.43,43.82 270.38,43.82 271.32,43.82 272.27,43.82 273.22,43.82 274.16,43.82 275.11,43.82 276.06,43.82 277.01,43.82 277.95,43.82 278.90,43.82 279.85,43.82 280.79,43.82 281.74,43.82 282.69,43.82 283.64,43.82 284.58,43.82 285.53,43.82 286.48,43.82 287.42,43.82 288.37,43.82 289.32,43.82 290.27,43.82 291.21,43.82 292.16,43.82 293.11,43.82 294.05,43.82 295.00,43.82 295.95,43.82 296.90,43.82 297.84,43.82 298.79,43.82 299.74,43.82 300.68,43.82 301.63,43.82 302.58,43.82 303.53,43.82 304.47,43.82 305.42,43.82 306.37,43.82 307.32,43.82 308.26,43.82 309.21,43.82 310.16,43.82 311.10,43.82 312.05,43.82 313.00,43.82 313.95,43.82 314.89,43.82 315.84,43.82 316.79,43.82 317.73,43.82 318.68,43.82 319.63,43.82 320.58,43.82 321.52,43.82 322.47,43.82 323.42,43.82 324.36,43.82 325.31,43.82 326.26,43.82 327.21,43.82 328.15,43.82 329.10,43.82 330.05,43.82 330.99,43.82 331.94,43.82 332.89,43.82 333.84,43.82 334.78,43.82 335.73,43.82 336.68,43.82 337.62,43.82 338.57,43.82 339.52,43.82 340.47,43.82 341.41,43.82 342.36,43.82 343.31,43.82 344.25,43.82 345.20,43.82 346.15,43.82 347.10,43.82 348.04,43.82 348.99,43.82 349.94,43.82 350.88,43.82 351.83,43.82 352.78,43.82 353.73,43.82 354.67,43.82 355.62,43.82 356.57,43.82 357.51,43.83 358.46,43.83 359.41,43.84 360.36,43.84 361.30,43.86 362.25,43.88 363.20,43.91 364.14,43.96 365.09,44.02 366.04,44.11 366.99,44.23 367.93,44.39 368.88,44.60 369.83,44.86 370.77,45.19 371.72,45.60 372.67,46.09 373.62,46.66 374.56,47.33 375.51,48.10 376.46,48.96 377.41,49.92 378.35,50.97 379.30,52.12 380.25,53.34 381.19,54.65 382.14,56.03 383.09,57.47 384.04,58.97 384.98,60.52 385.93,62.11 386.88,63.74 387.82,65.40 388.77,67.08 389.72,68.78 390.67,70.49 391.61,72.20 392.56,73.92 393.51,75.64 394.45,77.36 395.40,79.06 396.35,80.76 397.30,82.44 398.24,84.11 399.19,85.76 400.14,87.39 401.08,89.00 402.03,90.59 402.98,92.16 403.93,93.70 404.87,95.22 405.82,96.71 406.77,98.17 407.71,99.60 408.66,101.01 409.61,102.39 410.56,103.73 411.50,105.04 412.45,106.33 413.40,107.58 414.34,108.79 415.29,109.98 416.24,111.12 417.19,112.23 418.13,113.31 419.08,114.34 420.03,115.34 420.97,116.30 421.92,117.22 422.87,118.09 423.82,118.92 424.76,119.71 425.71,120.45 426.66,121.14 427.60,121.78 428.55,122.38 429.50,122.93 430.45,123.43 431.39,123.88 432.34,124.28 433.29,124.63 434.23,124.95 435.18,125.21 436.13,125.44 437.08,125.64 438.02,125.80 438.97,125.93 439.92,126.03 440.86,126.12 441.81,126.18 442.76,126.23 443.71,126.27 444.65,126.30 445.60,126.32 446.55,126.34 447.50,126.35 448.44,126.36 449.39,126.36 450.34,126.37 451.28,126.37 452.23,126.37 453.18,126.37 454.13,126.37 455.07,126.37 456.02,126.37 456.97,126.37 457.91,126.37 458.86,126.37 459.81,126.37 460.76,126.37 461.70,126.37 462.65,126.37 463.60,126.37 464.54,126.36 465.49,126.36 466.44,126.36 467.39,126.36 468.33,126.36 469.28,126.35 470.23,126.35 471.17,126.35 472.12,126.34 473.07,126.34 474.02,126.33 474.96,126.33 475.91,126.33 476.86,126.32 477.80,126.31 478.75,126.31 479.70,126.30 480.65,126.29 481.59,126.28 482.54,126.29 483.49,126.32 484.43,126.30 485.38,126.02 486.33,125.76 487.28,126.98 488.22,131.32 489.17,138.03 490.12,144.21 491.06,147.96 492.01,149.60 492.96,150.19 493.91,150.39 494.85,150.45 495.80,150.47 496.75,150.48 497.69,150.48 498.64,150.48 499.59,150.48 500.54,150.48 501.48,150.48 502.43,150.48 503.38,150.48 504.32,150.48 505.27,150.48 506.22,150.48 507.17,150.48 508.11,150.48 509.06,150.48 510.01,150.48 510.95,150.48 511.90,150.48 512.85,150.48 513.80,150.48 514.74,150.48 515.69,150.48 516.64,150.48 517.59,150.48 518.53,150.48 519.48,150.48 520.43,150.48 521.37,150.48 522.32,150.48 523.27,150.48 524.22,150.48 525.16,150.48 526.11,150.48 527.06,150.48 528.00,150.48 528.95,150.48 529.90,150.48 530.85,150.48 531.79,150.48 532.74,150.48 533.69,150.48 534.63,150.48 535.58,150.48 536.53,150.48 537.48,150.48 538.42,150.48 539.37,150.48 540.32,150.48 541.26,150.48 542.21,150.48 543.16,150.48 544.11,150.48 545.05,150.48 546.00,150.48" fill="none" stroke="#2ca02c" stroke-width="1.8"/>
<polyline points="62.00,162.33 62.95,162.33 63.89,162.33 64.84,162.33 65.79,162.33 66.74,162.33 67.68,162.33 68.63,162.33 69.58,162.33 70.52,162.33 71.47,162.33 72.42,162.33 73.37,162.33 74.31,162.33 75.26,162.33 76.21,162.33 77.15,162.33 78.10,162.33 79.05,162.33 80.00,162.33 80.94,162.33 81.89,162.33 82.84,162.33 83.78,162.33 84.73,162.33 85.68,162.33 86.63,162.33 87.57,162.33 88.52,162.33 89.47,162.33 90.41,162.33 91.36,162.33 92.31,162.33 93.26,162.33 94.20,162.33 95.15,162.33 96.10,162.33 97.05,162.33 97.99,162.33 98.94,162.33 99.89,162.33 100.83,162.33 101.78,162.33 102.73,162.33 103.68,162.33 104.62,162.33 105.57,162.33 106.52,162.33 107.46,162.33 108.41,162.33 109.36,162.33 110.31,162.33 111.25,162.34 112.20,162.35 113.15,162.40 114.09,162.55 115.04,163.02 115.99,164.48 116.94,168.79 117.88,180.01 118.83,202.19 119.78,231.51 120.72,256.71 121.67,270.54 122.62,274.18 123.57,273.40 124.51,272.58 125.46,272.51 126.41,272.61 127.35,272.63 128.30,272.59 129.25,272.56 130.20,272.54 131.14,272.52 132.09,272.51 133.04,272.49 133.98,272.47 134.93,272.46 135.88,272.44 136.83,272.43 137.77,272.42 138.72,272.40 139.67,272.39 140.61,272.38 141.56,272.37 142.51,272.36 143.46,272.35 144.40,272.34 145.35,272.33 146.30,272.32 147.24,272.31 148.19,272.31 149.14,272.30 150.09,272.29 151.03,272.28 151.98,272.28 152.93,272.27 153.87,272.26 154.82,272.25 155.77,272.24 156.72,272.23 157.66,272.22 158.61,272.21 159.56,272.20 160.50,272.18 161.45,272.16 162.40,272.13 163.35,272.08 164.29,272.03 165.24,271.96 166.19,271.87 167.14,271.74 168.08,271.59 169.03,271.39 169.98,271.14 170.92,270.83 171.87,270.45 172.82,270.00 173.77,269.47 174.71,268.85 175.66,268.14 176.61,267.33 177.55,266.43 178.50,265.43 179.45,264.34 180.40,263.15 181.34,261.88 182.29,260.51 183.24,259.07 184.18,257.55 185.13,255.97 186.08,254.32 187.03,252.61 187.97,250.85 188.92,249.05 189.87,247.20 190.81,245.31 191.76,243.39 192.71,241.45 193.66,239.48 194.60,237.48 195.55,235.47 196.50,233.44 197.44,231.40 198.39,229.35 199.34,227.30 200.29,225.23 201.23,223.16 202.18,221.10 203.13,219.03 204.07,216.96 205.02,214.89 205.97,212.84 206.92,210.78 207.86,208.74 208.81,206.71 209.76,204.69 210.70,202.68 211.65,200.69 212.60,198.71 213.55,196.76 214.49,194.83 215.44,192.92 216.39,191.04 217.33,189.19 218.28,187.37 219.23,185.59 220.18,183.85 221.12,182.15 222.07,180.51 223.02,178.91 223.96,177.37 224.91,175.89 225.86,174.47 226.81,173.13 227.75,171.85 228.70,170.66 229.65,169.55 230.59,168.53 231.54,167.60 232.49,166.75 233.44,166.00 234.38,165.33 235.33,164.75 236.28,164.26 237.23,163.84 238.17,163.49 239.12,163.21 240.07,162.99 241.01,162.81 241.96,162.67 242.91,162.57 243.86,162.50 244.80,162.44 245.75,162.40 246.70,162.38 247.64,162.36 248.59,162.35 249.54,162.34 250.49,162.34 251.43,162.33 252.38,162.33 253.33,162.33 254.27,162.33 255.22,162.33 256.17,162.33 257.12,162.33 258.06,162.33 259.01,162.33 259.96,162.33 260.90,162.33 261.85,162.33 262.80,162.33 263.75,162.33 264.69,162.33 265.64,162.33 266.59,162.33 267.53,162.33 268.48,162.33 269.43,162.33 270.38,162.33 271.32,162.33 272.27,162.33 273.22,162.33 274.16,162.33 275.11,162.33 276.06,162.33 277.01,162.33 277.95,162.33 278.90,162.33 279.85,162.33 280.79,162.33 281.74,162.33 282.69,162.33 283.64,162.33 284.58,162.33 285.53,162.33 286.48,162.33 287.42,162.33 288.37,162.33 289.32,162.33 290.27,162.33 291.21,162.33 292.16,162.33 293.11,162.33 294.05,162.33 295.00,162.33 295.95,162.33 296.90,162.33 297.84,162.33 298.79,162.33 299.74,162.33 300.68,162.33 301.63,162.33 302.58,162.33 303.53,162.33 304.47,162.33 305.42,162.33 306.37,162.33 307.32,162.33 308.26,162.33 309.21,162.33 310.16,162.33 311.10,162.33 312.05,162.33 313.00,162.33 313.95,162.33 314.89,162.33 315.84,162.33 316.79,162.33 317.73,162.33 318.68,162.33 319.63,162.33 320.58,162.33 321.52,162.33 322.47,162.33 323.42,162.33 324.36,162.33 325.31,162.33 326.26,162.33 327.21,162.33 328.15,162.33 329.10,162.33 330.05,162.33 330.99,162.33 331.94,162.33 332.89,162.33 333.84,162.33 334.78,162.33 335.73,162.33 336.68,162.33 337.62,162.33 338.57,162.33 339.52,162.33 340.47,162.33 341.41,162.33 342.36,162.33 343.31,162.33 344.25,162.33 345.20,162.33 346.15,162.33 347.10,162.33 348.04,162.33 348.99,162.33 349.94,162.33 350.88,162.33 351.83,162.33 352.78,162.33 353.73,162.33 354.67,162.33 355.62,162.33 356.57,162.33 357.51,162.33 358.46,162.32 359.41,162.32 360.36,162.31 361.30,162.30 362.25,162.28 363.20,162.25 364.14,162.22 365.09,162.16 366.04,162.09 366.99,161.98 367.93,161.85 368.88,161.67 369.83,161.45 370.77,161.16 371.72,160.82 372.67,160.40 373.62,159.90 374.56,159.33 375.51,158.66 376.46,157.91 377.41,157.06 378.35,156.13 379.30,155.10 380.25,154.00 381.19,152.80 382.14,151.53 383.09,150.19 384.04,148.77 384.98,147.29 385.93,145.75 386.88,144.15 387.82,142.50 388.77,140.81 389.72,139.07 390.67,137.29 391.61,135.47 392.56,133.62 393.51,131.74 394.45,129.83 395.40,127.90 396.35,125.95 397.30,123.97 398.24,121.98 399.19,119.97 400.14,117.95 401.08,115.92 402.03,113.87 402.98,111.82 403.93,109.76 404.87,107.70 405.82,105.63 406.77,103.56 407.71,101.49 408.66,99.43 409.61,97.36 410.56,95.30 411.50,93.25 412.45,91.22 413.40,89.19 414.34,87.18 415.29,85.18 416.24,83.21 417.19,81.26 418.13,79.35 419.08,77.46 420.03,75.61 420.97,73.81 421.92,72.05 422.87,70.34 423.82,68.69 424.76,67.10 425.71,65.59 426.66,64.15 427.60,62.78 428.55,61.51 429.50,60.32 430.45,59.22 431.39,58.23 432.34,57.32 433.29,56.52 434.23,55.81 435.18,55.19 436.13,54.66 437.08,54.21 438.02,53.83 438.97,53.52 439.92,53.27 440.86,53.07 441.81,52.91 442.76,52.79 443.71,52.70 444.65,52.63 445.60,52.57 446.55,52.53 447.50,52.50 448.44,52.48 449.39,52.46 450.34,52.45 451.28,52.43 452.23,52.42 453.18,52.42 454.13,52.41 455.07,52.40 456.02,52.39 456.97,52.38 457.91,52.38 458.86,52.37 459.81,52.36 460.76,52.35 461.70,52.34 462.65,52.34 463.60,52.33 464.54,52.32 465.49,52.31 466.44,52.30 467.39,52.29 468.33,52.28 469.28,52.27 470.23,52.26 471.17,52.24 472.12,52.23 473.07,52.22 474.02,52.20 474.96,52.19 475.91,52.17 476.86,52.15 477.80,52.14 478.75,52.12 479.70,52.10 480.65,52.07 481.59,52.03 482.54,52.05 483.49,52.15 484.43,52.08 485.38,51.26 486.33,50.48 487.28,54.12 488.22,67.95 489.17,93.14 490.12,122.47 491.06,144.64 492.01,155.86 492.96,160.18 493.91,161.64 494.85,162.11 495.80,162.26 496.75,162.31 497.69,162.32 498.64,162.33 499.59,162.33 500.54,162.33 501.48,162.33 502.43,162.33 503.38,162.33 504.32,162.33 505.27,162.33 506.22,162.33 507.17,162.33 508.11,162.33 509.06,162.33 510.01,162.33 510.95,162.33 511.90,162.33 512.85,162.33 513.80,162.33 514.74,162.33 515.69,162.33 516.64,162.33 517.59,162.33 518.53,162.33 519.48,162.33 520.43,162.33 521.37,162.33 522.32,162.33 523.27,162.33 524.22,162.33 525.16,162.33 526.11,162.33 527.06,162.33 528.00,162.33 528.95,162.33 529.90,162.33 530.85,162.33 531.79,162.33 532.74,162.33 533.69,162.33 534.63,162.33 535.58,162.33 536.53,162.33 537.48,162.33 538.42,162.33 539.37,162.33 540.32,162.33 541.26,162.33 542.21,162.33 543.16,162.33 544.11,162.33 545.05,162.33 546.00,162.33" fill="none" stroke="#9467bd" stroke-width="1.8"/>
<line x1="72" y1="39" x2="94" y2="39" stroke="#1f77b4" stroke-width="2"/>
<text x="99" y="42" font-size="11" fill="#333">rho (computed)</text>
<line x1="72" y1="54" x2="94" y2="54" stroke="#d62728" stroke-width="2" stroke-dasharray="6 4"/>
<text x="99" y="57" font-size="11" fill="#333">rho (exact Riemann)</text>
<line x1="72" y1="69" x2="94" y2="69" stroke="#2ca02c" stroke-width="2"/>
<text x="99" y="72" font-size="11" fill="#333">p</text>
<line x1="72" y1="84" x2="94" y2="84" stroke="#9467bd" stroke-width="2"/>
<text x="99" y="87" font-size="11" fill="#333">u</text>
</svg>
