<svg xmlns="http://www.w3.org/2000/svg" width="560" height="330" viewBox="0 0 560 330" font-family="Helvetica,Arial,sans-serif">
<rect width="560" height="330" fill="#ffffff"/>
<text x="62" y="19" font-size="14" fill="#222">Shallow water: bump splits at c=sqrt(gh)=1</text>
<line x1="62.0" y1="30" x2="62.0" y2="288" stroke="#e5e5e5"/>
<text x="62.0" y="302" font-size="10" fill="#555" text-anchor="middle">0</text>
<line x1="213.8" y1="30" x2="213.8" y2="288" stroke="#e5e5e5"/>
<text x="213.8" y="302" font-size="10" fill="#555" text-anchor="middle">20</text>
<line x1="365.7" y1="30" x2="365.7" y2="288" stroke="#e5e5e5"/>
<text x="365.7" y="302" font-size="10" fill="#555" text-anchor="middle">40</text>
<line x1="517.5" y1="30" x2="517.5" y2="288" stroke="#e5e5e5"/>
<text x="517.5" y="302" font-size="10" fill="#555" text-anchor="middle">60</text>
<line x1="62" y1="274.2" x2="546" y2="274.2" stroke="#e5e5e5"/>
<text x="56" y="277.7" font-size="10" fill="#555" text-anchor="end">1</text>
<line x1="62" y1="228.1" x2="546" y2="228.1" stroke="#e5e5e5"/>
<text x="56" y="231.6" font-size="10" fill="#555" text-anchor="end">1.002</text>
<line x1="62" y1="182.0" x2="546" y2="182.0" stroke="#e5e5e5"/>
<text x="56" y="185.5" font-size="10" fill="#555" text-anchor="end">1.004</text>
<line x1="62" y1="136.0" x2="546" y2="136.0" stroke="#e5e5e5"/>
<text x="56" y="139.5" font-size="10" fill="#555" text-anchor="end">1.006</text>
<line x1="62" y1="89.9" x2="546" y2="89.9" stroke="#e5e5e5"/>
<text x="56" y="93.4" font-size="10" fill="#555" text-anchor="end">1.008</text>
<line x1="62" y1="43.8" x2="546" y2="43.8" stroke="#e5e5e5"/>
<text x="56" y="47.3" font-size="10" fill="#555" text-anchor="end">1.01</text>
<rect x="62" y="30" width="484" height="258" fill="none" stroke="#888"/>
<text x="304" y="322" font-size="11" fill="#333" text-anchor="middle">x</text>
<text x="14" y="159" font-size="11" fill="#333" text-anchor="middle" transform="rotate(-90 14 159)">h</text>
<polyline points="62.00,274.16 63.90,274.16 65.80,274.16 67.69,274.16 69.59,274.16 71.49,274.16 73.39,274.16 75.29,274.16 77.18,274.16 79.08,274.16 80.98,274.16 82.88,274.16 84.78,274.16 86.67,274.16 88.57,274.16 90.47,274.16 92.37,274.16 94.27,274.16 96.16,274.16 98.06,274.16 99.96,274.16 101.86,274.16 103.76,274.16 105.65,274.16 107.55,274.16 109.45,274.16 111.35,274.16 113.25,274.16 115.15,274.16 117.04,274.16 118.94,274.16 120.84,274.16 122.74,274.16 124.64,274.16 126.53,274.16 128.43,274.16 130.33,274.16 132.23,274.16 134.13,274.16 136.02,274.16 137.92,274.16 139.82,274.16 141.72,274.16 143.62,274.16 145.51,274.16 147.41,274.16 149.31,274.16 151.21,274.16 153.11,274.16 155.00,274.16 156.90,274.16 158.80,274.16 160.70,274.16 162.60,274.16 164.49,274.16 166.39,274.16 168.29,274.16 170.19,274.16 172.09,274.16 173.98,274.16 175.88,274.16 177.78,274.16 179.68,274.16 181.58,274.16 183.47,274.16 185.37,274.16 187.27,274.16 189.17,274.16 191.07,274.16 192.96,274.16 194.86,274.16 196.76,274.16 198.66,274.16 200.56,274.16 202.45,274.16 204.35,274.16 206.25,274.16 208.15,274.16 210.05,274.16 211.95,274.16 213.84,274.16 215.74,274.16 217.64,274.16 219.54,274.16 221.44,274.16 223.33,274.16 225.23,274.16 227.13,274.16 229.03,274.16 230.93,274.16 232.82,274.16 234.72,274.16 236.62,274.16 238.52,274.16 240.42,274.16 242.31,274.16 244.21,274.16 246.11,274.16 248.01,274.16 249.91,274.16 251.80,274.16 253.70,274.16 255.60,274.16 257.50,274.15 259.40,274.13 261.29,274.10 263.19,274.04 265.09,273.93 266.99,273.72 268.89,273.34 270.78,272.70 272.68,271.64 274.58,269.94 276.48,267.31 278.38,263.39 280.27,257.73 282.17,249.88 284.07,239.39 285.97,225.88 287.87,209.19 289.76,189.42 291.66,167.04 293.56,142.92 295.46,118.31 297.36,94.77 299.25,74.04 301.15,57.78 303.05,47.39 304.95,43.82 306.85,47.39 308.75,57.78 310.64,74.04 312.54,94.77 314.44,118.31 316.34,142.92 318.24,167.04 320.13,189.42 322.03,209.19 323.93,225.88 325.83,239.39 327.73,249.88 329.62,257.73 331.52,263.39 333.42,267.31 335.32,269.94 337.22,271.64 339.11,272.70 341.01,273.34 342.91,273.72 344.81,273.93 346.71,274.04 348.60,274.10 350.50,274.13 352.40,274.15 354.30,274.16 356.20,274.16 358.09,274.16 359.99,274.16 361.89,274.16 363.79,274.16 365.69,274.16 367.58,274.16 369.48,274.16 371.38,274.16 373.28,274.16 375.18,274.16 377.07,274.16 378.97,274.16 380.87,274.16 382.77,274.16 384.67,274.16 386.56,274.16 388.46,274.16 390.36,274.16 392.26,274.16 394.16,274.16 396.05,274.16 397.95,274.16 399.85,274.16 401.75,274.16 403.65,274.16 405.55,274.16 407.44,274.16 409.34,274.16 411.24,274.16 413.14,274.16 415.04,274.16 416.93,274.16 418.83,274.16 420.73,274.16 422.63,274.16 424.53,274.16 426.42,274.16 428.32,274.16 430.22,274.16 432.12,274.16 434.02,274.16 435.91,274.16 437.81,274.16 439.71,274.16 441.61,274.16 443.51,274.16 445.40,274.16 447.30,274.16 449.20,274.16 451.10,274.16 453.00,274.16 454.89,274.16 456.79,274.16 458.69,274.16 460.59,274.16 462.49,274.16 464.38,274.16 466.28,274.16 468.18,274.16 470.08,274.16 471.98,274.16 473.87,274.16 475.77,274.16 477.67,274.16 479.57,274.16 481.47,274.16 483.36,274.16 485.26,274.16 487.16,274.16 489.06,274.16 490.96,274.16 492.85,274.16 494.75,274.16 496.65,274.16 498.55,274.16 500.45,274.16 502.35,274.16 504.24,274.16 506.14,274.16 508.04,274.16 509.94,274.16 511.84,274.16 513.73,274.16 515.63,274.16 517.53,274.16 519.43,274.16 521.33,274.16 523.22,274.16 525.12,274.16 527.02,274.16 528.92,274.16 530.82,274.16 532.71,274.16 534.61,274.16 536.51,274.16 538.41,274.16 540.31,274.16 542.20,274.16 544.10,274.16 546.00,274.16" fill="none" stroke="#999999" stroke-width="1.8" stroke-dasharray="6 4"/>
<polyline points="62.00,274.16 63.90,274.16 65.80,274.16 67.69,274.16 69.59,274.16 71.49,274.16 73.39,274.16 75.29,274.16 77.18,274.16 79.08,274.16 80.98,274.16 82.88,274.16 84.78,274.16 86.67,274.16 88.57,274.16 90.47,274.15 92.37,274.15 94.27,274.14 96.16,274.13 98.06,274.11 99.96,274.07 101.86,274.03 103.76,273.95 105.65,273.84 107.55,273.68 109.45,273.44 111.35,273.11 113.25,272.64 115.15,272.00 117.04,271.12 118.94,269.95 120.84,268.41 122.74,266.43 124.64,263.91 126.53,260.77 128.43,256.94 130.33,252.36 132.23,247.00 134.13,240.89 136.02,234.07 137.92,226.68 139.82,218.92 141.72,211.04 143.62,203.37 145.51,196.26 147.41,190.09 149.31,185.20 151.21,181.89 153.11,180.39 155.00,180.81 156.90,183.15 158.80,187.28 160.70,192.98 162.60,199.93 164.49,207.77 166.39,216.11 168.29,224.57 170.19,232.82 172.09,240.55 173.98,247.56 175.88,253.70 177.78,258.90 179.68,263.15 181.58,266.51 183.47,269.05 185.37,270.91 187.27,272.20 189.17,273.05 191.07,273.59 192.96,273.90 194.86,274.06 196.76,274.14 198.66,274.17 200.56,274.18 202.45,274.18 204.35,274.17 206.25,274.17 208.15,274.17 210.05,274.17 211.95,274.17 213.84,274.17 215.74,274.17 217.64,274.17 219.54,274.17 221.44,274.17 223.33,274.17 225.23,274.17 227.13,274.17 229.03,274.17 230.93,274.17 232.82,274.17 234.72,274.17 236.62,274.17 238.52,274.17 240.42,274.17 242.31,274.17 244.21,274.17 246.11,274.17 248.01,274.17 249.91,274.17 251.80,274.17 253.70,274.17 255.60,274.17 257.50,274.17 259.40,274.17 261.29,274.17 263.19,274.17 265.09,274.17 266.99,274.17 268.89,274.17 270.78,274.17 272.68,274.17 274.58,274.17 276.48,274.17 278.38,274.17 280.27,274.17 282.17,274.17 284.07,274.17 285.97,274.17 287.87,274.17 289.76,274.17 291.66,274.17 293.56,274.17 295.46,274.17 297.36,274.17 299.25,274.17 301.15,274.17 303.05,274.17 304.95,274.17 306.85,274.17 308.75,274.17 310.64,274.17 312.54,274.17 314.44,274.17 316.34,274.17 318.24,274.17 320.13,274.17 322.03,274.17 323.93,274.17 325.83,274.17 327.73,274.17 329.62,274.17 331.52,274.17 333.42,274.17 335.32,274.17 337.22,274.17 339.11,274.17 341.01,274.17 342.91,274.17 344.81,274.17 346.71,274.17 348.60,274.17 350.50,274.17 352.40,274.17 354.30,274.17 356.20,274.17 358.09,274.17 359.99,274.17 361.89,274.17 363.79,274.17 365.69,274.17 367.58,274.17 369.48,274.17 371.38,274.17 373.28,274.17 375.18,274.17 377.07,274.17 378.97,274.17 380.87,274.17 382.77,274.17 384.67,274.17 386.56,274.17 388.46,274.17 390.36,274.17 392.26,274.17 394.16,274.17 396.05,274.17 397.95,274.17 399.85,274.17 401.75,274.17 403.65,274.17 405.55,274.17 407.44,274.18 409.34,274.18 411.24,274.17 413.14,274.14 415.04,274.06 416.93,273.90 418.83,273.59 420.73,273.05 422.63,272.20 424.53,270.91 426.42,269.05 428.32,266.51 430.22,263.15 432.12,258.90 434.02,253.70 435.91,247.56 437.81,240.55 439.71,232.82 441.61,224.57 443.51,216.11 445.40,207.77 447.30,199.93 449.20,192.98 451.10,187.28 453.00,183.15 454.89,180.81 456.79,180.39 458.69,181.89 460.59,185.20 462.49,190.09 464.38,196.26 466.28,203.37 468.18,211.04 470.08,218.92 471.98,226.68 473.87,234.07 475.77,240.89 477.67,247.00 479.57,252.36 481.47,256.94 483.36,260.77 485.26,263.91 487.16,266.43 489.06,268.41 490.96,269.95 492.85,271.12 494.75,272.00 496.65,272.64 498.55,273.11 500.45,273.44 502.35,273.68 504.24,273.84 506.14,273.95 508.04,274.03 509.94,274.07 511.84,274.11 513.73,274.13 515.63,274.14 517.53,274.15 519.43,274.15 521.33,274.16 523.22,274.16 525.12,274.16 527.02,274.16 528.92,274.16 530.82,274.16 532.71,274.16 534.61,274.16 536.51,274.16 538.41,274.16 540.31,274.16 542.20,274.16 544.10,274.16 546.00,274.16" fill="none" stroke="#1f77b4" stroke-width="1.8"/>
<line x1="72" y1="39" x2="94" y2="39" stroke="#999999" stroke-width="2" stroke-dasharray="6 4"/>
<text x="99" y="42" font-size="11" fill="#333">h (t=0)</text>
<line x1="72" y1="54" x2="94" y2="54" stroke="#1f77b4" stroke-width="2"/>
<text x="99" y="57" font-size="11" fill="#333">h (t=20)</text>
</svg>
