<svg xmlns="http://www.w3.org/2000/svg" width="560" height="330" viewBox="0 0 560 330" font-family="Helvetica,Arial,sans-serif">
<rect width="560" height="330" fill="#ffffff"/>
<text x="62" y="19" font-size="14" fill="#222">Yee-FDTD: pulse +50 cells</text>
<line x1="62.0" y1="30" x2="62.0" y2="288" stroke="#e5e5e5"/>
<text x="62.0" y="302" font-size="10" fill="#555" text-anchor="middle">0</text>
<line x1="159.6" y1="30" x2="159.6" y2="288" stroke="#e5e5e5"/>
<text x="159.6" y="302" font-size="10" fill="#555" text-anchor="middle">0.2</text>
<line x1="257.1" y1="30" x2="257.1" y2="288" stroke="#e5e5e5"/>
<text x="257.1" y="302" font-size="10" fill="#555" text-anchor="middle">0.4</text>
<line x1="354.7" y1="30" x2="354.7" y2="288" stroke="#e5e5e5"/>
<text x="354.7" y="302" font-size="10" fill="#555" text-anchor="middle">0.6</text>
<line x1="452.2" y1="30" x2="452.2" y2="288" stroke="#e5e5e5"/>
<text x="452.2" y="302" font-size="10" fill="#555" text-anchor="middle">0.8</text>
<line x1="62" y1="271.3" x2="546" y2="271.3" stroke="#e5e5e5"/>
<text x="56" y="274.8" font-size="10" fill="#555" text-anchor="end">0</text>
<line x1="62" y1="225.8" x2="546" y2="225.8" stroke="#e5e5e5"/>
<text x="56" y="229.3" font-size="10" fill="#555" text-anchor="end">0.2</text>
<line x1="62" y1="180.3" x2="546" y2="180.3" stroke="#e5e5e5"/>
<text x="56" y="183.8" font-size="10" fill="#555" text-anchor="end">0.4</text>
<line x1="62" y1="134.8" x2="546" y2="134.8" stroke="#e5e5e5"/>
<text x="56" y="138.3" font-size="10" fill="#555" text-anchor="end">0.6</text>
<line x1="62" y1="89.3" x2="546" y2="89.3" stroke="#e5e5e5"/>
<text x="56" y="92.8" font-size="10" fill="#555" text-anchor="end">0.8</text>
<line x1="62" y1="43.8" x2="546" y2="43.8" stroke="#e5e5e5"/>
<text x="56" y="47.3" font-size="10" fill="#555" text-anchor="end">1</text>
<rect x="62" y="30" width="484" height="258" fill="none" stroke="#888"/>
<text x="304" y="322" font-size="11" fill="#333" text-anchor="middle">x</text>
<text x="14" y="159" font-size="11" fill="#333" text-anchor="middle" transform="rotate(-90 14 159)">Ey</text>
<polyline points="62.00,271.28 65.81,271.28 69.62,271.28 73.43,271.28 77.24,271.28 81.06,271.28 84.87,271.28 88.68,271.28 92.49,271.28 96.30,271.28 100.11,271.28 103.92,271.28 107.73,271.28 111.54,271.28 115.35,271.28 119.17,271.28 122.98,271.28 126.79,271.28 130.60,271.28 134.41,271.28 138.22,271.28 142.03,271.28 145.84,271.28 149.65,271.28 153.46,271.28 157.28,271.28 161.09,271.28 164.90,271.28 168.71,271.28 172.52,271.28 176.33,271.28 180.14,271.28 183.95,271.28 187.76,271.28 191.57,271.28 195.39,271.28 199.20,271.28 203.01,271.28 206.82,271.27 210.63,271.27 214.44,271.25 218.25,271.22 222.06,271.16 225.87,271.05 229.69,270.84 233.50,270.47 237.31,269.84 241.12,268.79 244.93,267.11 248.74,264.52 252.55,260.64 256.36,255.06 260.17,247.30 263.98,236.94 267.80,223.60 271.61,207.12 275.42,187.60 279.23,165.50 283.04,141.68 286.85,117.37 290.66,94.13 294.47,73.66 298.28,57.60 302.09,47.35 305.91,43.82 309.72,47.35 313.53,57.60 317.34,73.66 321.15,94.13 324.96,117.37 328.77,141.68 332.58,165.50 336.39,187.60 340.20,207.12 344.02,223.60 347.83,236.94 351.64,247.30 355.45,255.06 359.26,260.64 363.07,264.52 366.88,267.11 370.69,268.79 374.50,269.84 378.31,270.47 382.13,270.84 385.94,271.05 389.75,271.16 393.56,271.22 397.37,271.25 401.18,271.27 404.99,271.27 408.80,271.28 412.61,271.28 416.43,271.28 420.24,271.28 424.05,271.28 427.86,271.28 431.67,271.28 435.48,271.28 439.29,271.28 443.10,271.28 446.91,271.28 450.72,271.28 454.54,271.28 458.35,271.28 462.16,271.28 465.97,271.28 469.78,271.28 473.59,271.28 477.40,271.28 481.21,271.28 485.02,271.28 488.83,271.28 492.65,271.28 496.46,271.28 500.27,271.28 504.08,271.28 507.89,271.28 511.70,271.28 515.51,271.28 519.32,271.28 523.13,271.28 526.94,271.28 530.76,271.28 534.57,271.28 538.38,271.28 542.19,271.28 546.00,271.28" fill="none" stroke="#999999" stroke-width="1.8" stroke-dasharray="6 4"/>
<polyline points="62.00,261.14 65.81,265.13 69.62,267.98 73.43,270.00 77.24,271.44 81.06,272.49 84.87,273.25 88.68,273.78 92.49,274.09 96.30,274.18 100.11,274.04 103.92,273.68 107.73,273.11 111.54,272.37 115.35,271.52 119.17,270.63 122.98,269.80 126.79,269.10 130.60,268.58 134.41,268.27 138.22,268.18 142.03,268.28 145.84,268.54 149.65,268.90 153.46,269.31 157.28,269.72 161.09,270.09 164.90,270.42 168.71,270.68 172.52,270.88 176.33,271.02 180.14,271.12 183.95,271.18 187.76,271.22 191.57,271.25 195.39,271.26 199.20,271.27 203.01,271.27 206.82,271.28 210.63,271.28 214.44,271.28 218.25,271.28 222.06,271.28 225.87,271.28 229.69,271.28 233.50,271.28 237.31,271.28 241.12,271.28 244.93,271.28 248.74,271.28 252.55,271.28 256.36,271.28 260.17,271.28 263.98,271.28 267.80,271.28 271.61,271.28 275.42,271.28 279.23,271.28 283.04,271.28 286.85,271.28 290.66,271.28 294.47,271.28 298.28,271.28 302.09,271.28 305.91,271.28 309.72,271.28 313.53,271.28 317.34,271.28 321.15,271.28 324.96,271.28 328.77,271.28 332.58,271.28 336.39,271.28 340.20,271.28 344.02,271.28 347.83,271.28 351.64,271.28 355.45,271.28 359.26,271.28 363.07,271.28 366.88,271.28 370.69,271.28 374.50,271.28 378.31,271.28 382.13,271.28 385.94,271.28 389.75,271.28 393.56,271.28 397.37,271.28 401.18,271.27 404.99,271.26 408.80,271.24 412.61,271.20 416.43,271.11 420.24,270.94 424.05,270.62 427.86,270.04 431.67,269.05 435.48,267.41 439.29,264.80 443.10,260.84 446.91,255.03 450.72,246.89 454.54,235.93 458.35,221.81 462.16,204.38 465.97,183.85 469.78,160.81 473.59,136.27 477.40,111.65 481.21,88.61 485.02,68.90 488.83,54.14 492.65,45.59 496.46,43.97 500.27,49.36 504.08,61.22 507.89,78.44 511.70,99.55 515.51,122.88 519.32,146.81 523.13,169.94 526.94,191.17 530.76,209.79 534.57,225.46 538.38,238.15 542.19,248.07 546.00,255.59" fill="none" stroke="#1f77b4" stroke-width="1.8"/>
<line x1="72" y1="39" x2="94" y2="39" stroke="#999999" stroke-width="2" stroke-dasharray="6 4"/>
<text x="99" y="42" font-size="11" fill="#333">Ey (t=0)</text>
<line x1="72" y1="54" x2="94" y2="54" stroke="#1f77b4" stroke-width="2"/>
<text x="99" y="57" font-size="11" fill="#333">Ey (t=100dt)</text>
</svg>
